<svg xmlns="http://www.w3.org/2000/svg" width="24" height="17.56" viewBox="0 0 24 17.56">
  <defs>
    <style>
      .cls-1 {
        fill: #fff;
        fill-rule: evenodd;
      }
    </style>
  </defs>
  <path id="Backhoe.svg" class="cls-1" d="M418.576,4305.66a1.215,1.215,0,0,0,.174-0.63,1.253,1.253,0,0,0-1.195-1.25l-2.756-5.56a1.971,1.971,0,0,0-1.836-2.68,1.969,1.969,0,0,0-1.962,1.83l-2.7,2.71h-3.27v-4.33a1.52,1.52,0,0,0-1.522-1.52h-4.179a1.521,1.521,0,0,0-1.522,1.52v4.33h-0.847a1.115,1.115,0,0,0-1.116,1.11v2.6a1.117,1.117,0,0,0,1.116,1.12H399.6v0.69h-1.514a3.085,3.085,0,0,0,0,6.17H408.96a3.085,3.085,0,1,0,0-6.17h-3.633v-0.69h3.895a1.117,1.117,0,0,0,1.116-1.12v-2.25l2.015-2.16a1.775,1.775,0,0,0,.61.1,1.556,1.556,0,0,0,.375-0.04l2.93,5.34a1.411,1.411,0,0,0-.024.25,1.278,1.278,0,0,0,.2.69l-2.236,2.23-0.9-.9-0.6.6,1.482,1.48A2.811,2.811,0,0,0,418.576,4305.66Zm-18.623-9.28h2.928v3.46h-2.928v-3.46h0Zm5.8,11.98v-0.97h1.416v0.97h1.522v-0.97h0.269a1.3,1.3,0,0,1,1.3,1.29,1.3,1.3,0,0,1-1.3,1.3h-1.738v-0.67H405.7v0.67h-1.416v-0.67h-1.522v0.67h-1.417v-0.67h-1.521v0.67h-1.738a1.314,1.314,0,0,1-.917-0.38,1.3,1.3,0,0,1-.379-0.92,1.259,1.259,0,0,1,.379-0.91,1.272,1.272,0,0,1,.917-0.38h0.269v0.97h1.522v-0.97h1.416v0.97h1.521v-0.97h1.417v0.97h1.522Zm7.21-10.19a0.655,0.655,0,1,1,.656-0.66A0.654,0.654,0,0,1,412.963,4298.17Zm4.534,7.35a0.49,0.49,0,1,1,.492-0.49A0.491,0.491,0,0,1,417.5,4305.52Z" transform="translate(-395 -4294.22)"/>
</svg>
