<svg width="136" height="29" viewBox="0 0 136 29" fill="none" xmlns="http://www.w3.org/2000/svg">
<path d="M55.216 25.232C55.072 24.992 54.464 24.032 54.248 23.736V23.488H55.216V22.8H54.248V21.296H53.52V22.8H52.432V23.488H53.464C53.232 24.52 52.76 25.728 52.256 26.36C52.384 26.56 52.552 26.888 52.624 27.096C52.952 26.616 53.272 25.888 53.52 25.104V28.632H54.248V24.656C54.448 25.056 54.672 25.488 54.776 25.752L55.216 25.232ZM59.6 25.352V24.672H57.832V23.408H59.36V22.728H57.832V21.296H57.104V22.728H56.416C56.488 22.424 56.552 22.112 56.6 21.784L55.912 21.672C55.784 22.6 55.536 23.52 55.128 24.112C55.288 24.192 55.592 24.384 55.72 24.488C55.912 24.192 56.08 23.824 56.216 23.408H57.104V24.672H55.272V25.352H56.72C56.28 26.304 55.552 27.2 54.792 27.68C54.952 27.816 55.176 28.072 55.288 28.256C55.992 27.752 56.632 26.912 57.104 25.976V28.632H57.832V25.92C58.216 26.808 58.744 27.672 59.28 28.192C59.408 28 59.648 27.744 59.824 27.608C59.208 27.112 58.6 26.24 58.224 25.352H59.6ZM62.824 25.224H64.224V24.504H60.752V25.224H62.08V27.368C61.472 27.48 60.92 27.584 60.488 27.656L60.704 28.408C61.728 28.184 63.16 27.872 64.488 27.568L64.432 26.896C63.896 27.008 63.352 27.12 62.824 27.216V25.224ZM65.672 21.736C66.064 22.016 66.528 22.432 66.752 22.712L67.272 22.248C67.04 21.976 66.552 21.584 66.16 21.328L65.672 21.736ZM67.552 23.44V22.712H65.256C65.24 22.264 65.232 21.792 65.24 21.328H64.44C64.44 21.792 64.456 22.256 64.472 22.712H60.464V23.44H64.52C64.72 26.32 65.352 28.648 66.672 28.648C67.336 28.648 67.6 28.256 67.728 26.816C67.52 26.744 67.24 26.568 67.072 26.392C67.024 27.432 66.928 27.864 66.736 27.864C66.04 27.864 65.48 25.96 65.304 23.44H67.552ZM70.272 23.712C70.984 23.176 71.592 22.576 71.976 22.016C72.4 22.6 73.056 23.2 73.776 23.712H70.272ZM70.12 24.4H73.864V23.776C74.328 24.104 74.816 24.384 75.28 24.608C75.408 24.384 75.576 24.12 75.752 23.936C74.504 23.448 73.176 22.472 72.328 21.296H71.56C70.96 22.272 69.656 23.424 68.288 24.048C68.448 24.208 68.648 24.488 68.728 24.656C69.208 24.424 69.68 24.136 70.12 23.824V24.4ZM68.744 25.928H70.728C70.536 26.464 70.248 27.104 69.984 27.6L68.8 27.64L68.896 28.368C70.256 28.312 72.288 28.224 74.192 28.128C74.336 28.32 74.456 28.496 74.544 28.648L75.224 28.224C74.856 27.632 74.096 26.784 73.368 26.168L72.728 26.512C73.04 26.792 73.36 27.128 73.656 27.464C72.68 27.504 71.688 27.544 70.8 27.576C71.088 27.064 71.384 26.464 71.648 25.928H75.312V25.232H68.744V25.928ZM79.736 25.784C79.552 25.616 78.888 25.04 78.512 24.736C78.912 24.208 79.264 23.624 79.504 23.016L79.088 22.736L78.96 22.76H78.408V21.288H77.672V22.76H76.464V23.44H78.56C78.016 24.44 77.096 25.368 76.184 25.888C76.296 26.032 76.48 26.384 76.552 26.576C76.928 26.336 77.312 26.032 77.672 25.68V28.632H78.408V25.448C78.736 25.776 79.096 26.16 79.28 26.392L79.736 25.784ZM81.96 27.672V24.536H83.576V23.816H81.96V21.352H81.2V23.816H79.584V24.536H81.2V27.672H79.264V28.408H83.744V27.672H81.96ZM92.0609 23.664H90.1009V23.248H91.6849V22.816H90.1009V22.416H89.4289V22.816H87.9249V23.248H89.4289V23.664H87.5009V24.104H92.0609V23.664ZM90.1569 25.768H91.3489C91.1489 25.928 90.9169 26.096 90.7009 26.24C90.4929 26.096 90.3009 25.936 90.1569 25.776V25.768ZM88.5889 24.824H90.9889V25.368H88.5889V24.824ZM91.6449 25.624V24.416H87.9649V25.768H89.3329C88.7889 26.176 88.0449 26.512 87.3329 26.736C87.4609 26.848 87.6609 27.096 87.7489 27.216C88.2769 27.016 88.8369 26.744 89.3329 26.424V27.44H89.9889V26.312C90.4849 26.792 91.1729 27.192 91.8449 27.4C91.9329 27.264 92.1089 27.032 92.2369 26.928C91.8529 26.832 91.4689 26.68 91.1169 26.488C91.4129 26.32 91.7489 26.096 92.0369 25.864L91.6449 25.624ZM87.1569 27.648V22.288H92.4049V27.648H87.1569ZM86.4609 21.616V28.632H87.1569V28.32H92.4049V28.632H93.1329V21.616H86.4609ZM96.3409 26.368H95.9089V21.464H95.3089V26.368H94.9009V22.648H94.3649V27.704H94.9009V26.968H96.3409V27.464H96.8609V22.648H96.3409V26.368ZM99.0049 25.856V26.688H98.0369V25.856H99.0049ZM99.6129 27.224V25.328H97.4449V27.664H98.0369V27.224H99.6129ZM97.4369 24.176C98.3009 23.984 98.8129 23.696 99.1329 23.264C99.7009 23.56 100.357 23.928 100.741 24.176H97.4369ZM101.485 24.176H100.845L101.269 23.704C100.829 23.432 100.037 23.024 99.4049 22.728C99.4209 22.664 99.4369 22.608 99.4529 22.544H101.245V21.936H99.5649C99.5809 21.736 99.5969 21.52 99.6049 21.288H98.9169C98.9089 21.528 98.8929 21.744 98.8689 21.936H97.1729V22.544H98.7329C98.5249 23.12 98.0689 23.44 97.0449 23.64C97.1729 23.768 97.3329 24.008 97.3969 24.176H96.9409V24.8H100.261V27.816C100.261 27.936 100.221 27.968 100.093 27.968C99.9569 27.976 99.5249 27.976 99.0529 27.96C99.1569 28.144 99.2689 28.432 99.3089 28.632C99.9249 28.632 100.341 28.616 100.605 28.512C100.877 28.4 100.957 28.208 100.957 27.832V24.8H101.485V24.176ZM102.485 25.864C102.405 26.552 102.253 27.256 102.013 27.736C102.165 27.792 102.461 27.928 102.581 28.016C102.829 27.504 103.013 26.728 103.117 25.976L102.485 25.864ZM104.653 25.304C104.717 25.472 104.765 25.624 104.797 25.752L105.365 25.48C105.253 25.04 104.925 24.36 104.597 23.84L104.061 24.072C104.181 24.272 104.293 24.488 104.397 24.712L103.333 24.752C103.869 24.088 104.469 23.208 104.925 22.48L104.293 22.208C104.085 22.624 103.797 23.12 103.485 23.6C103.381 23.456 103.245 23.296 103.093 23.136C103.381 22.704 103.717 22.072 104.005 21.528L103.333 21.288C103.189 21.72 102.925 22.296 102.677 22.736C102.605 22.672 102.533 22.608 102.461 22.544L102.101 23.04C102.453 23.376 102.861 23.808 103.109 24.16C102.949 24.384 102.797 24.592 102.645 24.784L102.085 24.8L102.149 25.456C102.517 25.432 102.941 25.408 103.397 25.384V28.64H104.061V25.344L104.653 25.304ZM104.237 26.008C104.437 26.496 104.653 27.128 104.725 27.544L105.317 27.336C105.229 26.928 105.013 26.304 104.797 25.824L104.237 26.008ZM106.381 26.36H108.181V27.736H106.381V26.36ZM108.181 22.384V23.696H106.381V22.384H108.181ZM108.181 25.688H106.381V24.368H108.181V25.688ZM108.933 27.736V21.712H105.653V27.736H104.861V28.408H109.509V27.736H108.933Z" fill="#191919"/>
<path d="M35.625 8.17969H32.5703V7.24219C32.5703 6.80469 32.5312 6.52604 32.4531 6.40625C32.375 6.28646 32.2448 6.22656 32.0625 6.22656C31.8646 6.22656 31.7135 6.30729 31.6094 6.46875C31.5104 6.63021 31.4609 6.875 31.4609 7.20312C31.4609 7.625 31.5182 7.94271 31.6328 8.15625C31.7422 8.36979 32.0521 8.6276 32.5625 8.92969C34.026 9.79948 34.9479 10.513 35.3281 11.0703C35.7083 11.6276 35.8984 12.526 35.8984 13.7656C35.8984 14.6667 35.7917 15.3307 35.5781 15.7578C35.3698 16.1849 34.9635 16.5443 34.3594 16.8359C33.7552 17.1224 33.0521 17.2656 32.25 17.2656C31.3698 17.2656 30.6172 17.099 29.9922 16.7656C29.3724 16.4323 28.9661 16.0078 28.7734 15.4922C28.5807 14.9766 28.4844 14.2448 28.4844 13.2969V12.4688H31.5391V14.0078C31.5391 14.4818 31.5807 14.7865 31.6641 14.9219C31.7526 15.0573 31.9062 15.125 32.125 15.125C32.3438 15.125 32.5052 15.0391 32.6094 14.8672C32.7188 14.6953 32.7734 14.4401 32.7734 14.1016C32.7734 13.3568 32.6719 12.8698 32.4688 12.6406C32.2604 12.4115 31.7474 12.0286 30.9297 11.4922C30.112 10.9505 29.5703 10.5573 29.3047 10.3125C29.0391 10.0677 28.8177 9.72917 28.6406 9.29688C28.4688 8.86458 28.3828 8.3125 28.3828 7.64062C28.3828 6.67188 28.5052 5.96354 28.75 5.51562C29 5.06771 29.401 4.71875 29.9531 4.46875C30.5052 4.21354 31.1719 4.08594 31.9531 4.08594C32.8073 4.08594 33.5339 4.22396 34.1328 4.5C34.737 4.77604 35.1354 5.125 35.3281 5.54688C35.526 5.96354 35.625 6.67448 35.625 7.67969V8.17969ZM44.4531 11.7578C44.4531 13.0286 44.4219 13.9297 44.3594 14.4609C44.3021 14.987 44.1146 15.4688 43.7969 15.9062C43.4844 16.3438 43.0599 16.6797 42.5234 16.9141C41.987 17.1484 41.362 17.2656 40.6484 17.2656C39.9714 17.2656 39.362 17.1562 38.8203 16.9375C38.2839 16.7135 37.8516 16.3802 37.5234 15.9375C37.1953 15.4948 37 15.013 36.9375 14.4922C36.875 13.9714 36.8438 13.0599 36.8438 11.7578V9.59375C36.8438 8.32292 36.8724 7.42448 36.9297 6.89844C36.9922 6.36719 37.1797 5.88281 37.4922 5.44531C37.8099 5.00781 38.237 4.67188 38.7734 4.4375C39.3099 4.20312 39.9349 4.08594 40.6484 4.08594C41.3255 4.08594 41.9323 4.19792 42.4688 4.42188C43.0104 4.64062 43.4453 4.97135 43.7734 5.41406C44.1016 5.85677 44.2969 6.33854 44.3594 6.85938C44.4219 7.38021 44.4531 8.29167 44.4531 9.59375V11.7578ZM41.1641 7.60156C41.1641 7.01302 41.1302 6.63802 41.0625 6.47656C41 6.3099 40.8672 6.22656 40.6641 6.22656C40.4922 6.22656 40.3594 6.29427 40.2656 6.42969C40.1771 6.5599 40.1328 6.95052 40.1328 7.60156V13.5078C40.1328 14.2422 40.1615 14.6953 40.2188 14.8672C40.2812 15.0391 40.4219 15.125 40.6406 15.125C40.8646 15.125 41.0078 15.026 41.0703 14.8281C41.1328 14.6302 41.1641 14.1589 41.1641 13.4141V7.60156ZM53.0312 4.35156V17H50.1484L48.4375 11.25V17H45.6875V4.35156H48.4375L50.2812 10.0469V4.35156H53.0312ZM61.875 11.7578C61.875 13.0286 61.8438 13.9297 61.7812 14.4609C61.724 14.987 61.5365 15.4688 61.2188 15.9062C60.9062 16.3438 60.4818 16.6797 59.9453 16.9141C59.4089 17.1484 58.7839 17.2656 58.0703 17.2656C57.3932 17.2656 56.7839 17.1562 56.2422 16.9375C55.7057 16.7135 55.2734 16.3802 54.9453 15.9375C54.6172 15.4948 54.4219 15.013 54.3594 14.4922C54.2969 13.9714 54.2656 13.0599 54.2656 11.7578V9.59375C54.2656 8.32292 54.2943 7.42448 54.3516 6.89844C54.4141 6.36719 54.6016 5.88281 54.9141 5.44531C55.2318 5.00781 55.6589 4.67188 56.1953 4.4375C56.7318 4.20312 57.3568 4.08594 58.0703 4.08594C58.7474 4.08594 59.3542 4.19792 59.8906 4.42188C60.4323 4.64062 60.8672 4.97135 61.1953 5.41406C61.5234 5.85677 61.7188 6.33854 61.7812 6.85938C61.8438 7.38021 61.875 8.29167 61.875 9.59375V11.7578ZM58.5859 7.60156C58.5859 7.01302 58.5521 6.63802 58.4844 6.47656C58.4219 6.3099 58.2891 6.22656 58.0859 6.22656C57.9141 6.22656 57.7812 6.29427 57.6875 6.42969C57.599 6.5599 57.5547 6.95052 57.5547 7.60156V13.5078C57.5547 14.2422 57.5833 14.6953 57.6406 14.8672C57.7031 15.0391 57.8438 15.125 58.0625 15.125C58.2865 15.125 58.4297 15.026 58.4922 14.8281C58.5547 14.6302 58.5859 14.1589 58.5859 13.4141V7.60156ZM68.6094 4.35156V6.88281L66.1562 14.4688H68.6094V17H62.5469V15.1641L65.0781 6.88281H62.8438V4.35156H68.6094ZM75.1484 4.35156L77.0312 17H73.6641L73.5 14.7266H72.3203L72.125 17H68.7188L70.3906 4.35156H75.1484ZM73.4062 12.4844C73.2396 11.0521 73.0729 9.28385 72.9062 7.17969C72.5729 9.59635 72.3646 11.3646 72.2812 12.4844H73.4062ZM85.4297 4.35156L83.5469 10.0625L85.6094 17H82.2109L80.8828 11.5781V17H77.5938V4.35156H80.8828V9.26562L82.3438 4.35156H85.4297ZM89.4766 4.35156V17H86.1875V4.35156H89.4766ZM101.305 9.86719H98.0156V7.66406C98.0156 7.02344 97.9792 6.625 97.9062 6.46875C97.8385 6.30729 97.6849 6.22656 97.4453 6.22656C97.1745 6.22656 97.0026 6.32292 96.9297 6.51562C96.8568 6.70833 96.8203 7.125 96.8203 7.76562V13.6406C96.8203 14.2552 96.8568 14.6562 96.9297 14.8438C97.0026 15.0312 97.1667 15.125 97.4219 15.125C97.6667 15.125 97.8255 15.0312 97.8984 14.8438C97.9766 14.6562 98.0156 14.2161 98.0156 13.5234V11.9375H101.305V12.4297C101.305 13.737 101.211 14.6641 101.023 15.2109C100.841 15.7578 100.432 16.237 99.7969 16.6484C99.1667 17.0599 98.388 17.2656 97.4609 17.2656C96.4974 17.2656 95.7031 17.0911 95.0781 16.7422C94.4531 16.3932 94.0391 15.9115 93.8359 15.2969C93.6328 14.6771 93.5312 13.7474 93.5312 12.5078V8.8125C93.5312 7.90104 93.5625 7.21875 93.625 6.76562C93.6875 6.30729 93.8724 5.86719 94.1797 5.44531C94.4922 5.02344 94.9219 4.69271 95.4688 4.45312C96.0208 4.20833 96.6536 4.08594 97.3672 4.08594C98.3359 4.08594 99.1354 4.27344 99.7656 4.64844C100.396 5.02344 100.81 5.49219 101.008 6.05469C101.206 6.61198 101.305 7.48177 101.305 8.66406V9.86719ZM110 11.7578C110 13.0286 109.969 13.9297 109.906 14.4609C109.849 14.987 109.661 15.4688 109.344 15.9062C109.031 16.3438 108.607 16.6797 108.07 16.9141C107.534 17.1484 106.909 17.2656 106.195 17.2656C105.518 17.2656 104.909 17.1562 104.367 16.9375C103.831 16.7135 103.398 16.3802 103.07 15.9375C102.742 15.4948 102.547 15.013 102.484 14.4922C102.422 13.9714 102.391 13.0599 102.391 11.7578V9.59375C102.391 8.32292 102.419 7.42448 102.477 6.89844C102.539 6.36719 102.727 5.88281 103.039 5.44531C103.357 5.00781 103.784 4.67188 104.32 4.4375C104.857 4.20312 105.482 4.08594 106.195 4.08594C106.872 4.08594 107.479 4.19792 108.016 4.42188C108.557 4.64062 108.992 4.97135 109.32 5.41406C109.648 5.85677 109.844 6.33854 109.906 6.85938C109.969 7.38021 110 8.29167 110 9.59375V11.7578ZM106.711 7.60156C106.711 7.01302 106.677 6.63802 106.609 6.47656C106.547 6.3099 106.414 6.22656 106.211 6.22656C106.039 6.22656 105.906 6.29427 105.812 6.42969C105.724 6.5599 105.68 6.95052 105.68 7.60156V13.5078C105.68 14.2422 105.708 14.6953 105.766 14.8672C105.828 15.0391 105.969 15.125 106.188 15.125C106.411 15.125 106.555 15.026 106.617 14.8281C106.68 14.6302 106.711 14.1589 106.711 13.4141V7.60156ZM113.242 14.4219V17H110.859V14.4219H113.242ZM117.477 4.35156V14.4688H119.477V17H114.188V4.35156H117.477ZM126.906 4.35156V6.88281H124.953V17H121.664V6.88281H119.719V4.35156H126.906ZM127.656 4.35156H130.117C131.706 4.35156 132.779 4.42448 133.336 4.57031C133.898 4.71615 134.326 4.95573 134.617 5.28906C134.909 5.6224 135.091 5.99479 135.164 6.40625C135.237 6.8125 135.273 7.61458 135.273 8.8125V13.2422C135.273 14.3776 135.219 15.138 135.109 15.5234C135.005 15.9036 134.82 16.2031 134.555 16.4219C134.289 16.6354 133.961 16.7865 133.57 16.875C133.18 16.9583 132.591 17 131.805 17H127.656V4.35156ZM130.945 6.51562V14.8359C131.419 14.8359 131.711 14.7422 131.82 14.5547C131.93 14.362 131.984 13.8438 131.984 13V8.08594C131.984 7.51302 131.966 7.14583 131.93 6.98438C131.893 6.82292 131.81 6.70573 131.68 6.63281C131.549 6.55469 131.305 6.51562 130.945 6.51562Z" fill="#191919"/>
<path d="M11.9101 2.95576L12.0001 3.01149L12.0901 2.95576C12.435 2.74262 12.7977 2.55324 13.1687 2.39274L13.4847 2.25596L13.1849 2.08646C12.827 1.88387 12.4461 1.71667 12.0532 1.58926L12.0001 1.57178L11.9472 1.58931C11.5542 1.71671 11.1733 1.88387 10.8155 2.08651L10.5156 2.25601L10.8316 2.39279C11.2026 2.55329 11.5653 2.74266 11.9101 2.95576Z" fill="#191919"/>
<path d="M24 10.1305C24 7.49334 22.5895 5.02763 20.3167 3.68334C18.9726 1.41056 16.5067 0 13.8694 0C13.2383 0 12.6098 0.079875 12 0.236906C11.3902 0.079875 10.7617 0 10.1307 0C7.49334 0 5.02744 1.41056 3.68334 3.68334C1.41056 5.02763 0 7.49334 0 10.1305C0 10.7617 0.0800625 11.3902 0.236906 12C0.0800625 12.6098 0 13.2383 0 13.8695C0 16.5067 1.41056 18.9724 3.68334 20.3167C5.02744 22.5894 7.49334 24 10.1307 24C10.7617 24 11.3902 23.9201 12 23.7631C12.6098 23.9201 13.2383 24 13.8694 24C16.5067 24 18.9726 22.5894 20.3167 20.3167C22.5895 18.9724 24 16.5067 24 13.8695C24 13.2383 23.9199 12.6098 23.7631 12C23.9199 11.3902 24 10.7617 24 10.1305ZM21.0402 15.6568L20.9695 15.7153L20.9785 15.8061C21.0017 16.0433 21.0135 16.2814 21.0135 16.5133C21.0135 17.7601 20.6857 18.9871 20.0659 20.0657C18.9874 20.6857 17.76 21.0133 16.5131 21.0133C16.2815 21.0133 16.0436 21.0016 15.8063 20.9786L15.7151 20.9693L15.657 21.0406C14.7047 22.2018 13.4408 23.0192 12 23.4089C10.5593 23.0192 9.29527 22.2018 8.34295 21.0406L8.28492 20.9693L8.19375 20.9786C7.95642 21.0016 7.71853 21.0133 7.48692 21.0133C6.24005 21.0133 5.01267 20.6857 3.93412 20.0657C3.31439 18.9871 2.9865 17.7601 2.9865 16.5133C2.9865 16.2814 2.99841 16.0433 3.02156 15.8061L3.03052 15.7153L2.95983 15.6568C1.79859 14.7045 0.980719 13.4409 0.591469 12C0.980719 10.5591 1.79859 9.29545 2.95978 8.34319L3.03047 8.28473L3.02152 8.19394C2.99836 7.95666 2.98645 7.71858 2.98645 7.48673C2.98645 6.23986 3.31434 5.01286 3.93408 3.93431C5.01263 3.31434 6.24 2.98669 7.48688 2.98669C7.71848 2.98669 7.95637 2.99841 8.1937 3.02138L8.28487 3.0307L8.34291 2.95941C9.29527 1.79822 10.5593 0.980719 12 0.591094C13.4408 0.980719 14.7047 1.79822 15.657 2.95936L15.7151 3.03066L15.8063 3.02133C16.0436 2.99836 16.2815 2.98664 16.5131 2.98664C17.76 2.98664 18.9874 3.3143 20.0659 3.93427C20.6857 5.01281 21.0135 6.23981 21.0135 7.48669C21.0135 7.71853 21.0017 7.95661 20.9785 8.19389L20.9695 8.28469L21.0402 8.34314C22.2014 9.29545 23.0193 10.5591 23.4085 12C23.0193 13.4409 22.2014 14.7045 21.0402 15.6568Z" fill="#191919"/>
<path d="M18.3319 5.54083L18.3563 5.64368L18.4593 5.66824C18.8524 5.76096 19.2415 5.8833 19.6165 6.03138L19.9368 6.15842L19.8444 5.8264C19.7341 5.42974 19.5839 5.04325 19.3977 4.67734L19.3724 4.62747L19.3227 4.60216C18.957 4.4163 18.5704 4.26587 18.1738 4.15558L17.8418 4.06323L17.9685 4.38348C18.117 4.75839 18.2392 5.14802 18.3319 5.54083Z" fill="#191919"/>
<path d="M14.5648 5.55335L14.629 5.65188L14.7444 5.62731C15.0806 5.55527 15.4249 5.50305 15.7674 5.473L15.9946 5.45275L15.9121 5.24003C15.7647 4.86016 15.5782 4.49308 15.3581 4.14902L15.2938 4.0481L15.1771 4.07383C14.7779 4.16186 14.3859 4.29006 14.0119 4.45567L13.8032 4.54722L13.9498 4.7222C14.171 4.98602 14.3781 5.26577 14.5648 5.55335Z" fill="#191919"/>
<path d="M20.9883 11.9999L21.044 12.0903C21.2569 12.4348 21.4463 12.7975 21.607 13.1684L21.7438 13.4844L21.9135 13.1848C22.1159 12.8268 22.2833 12.4461 22.4107 12.0529L22.4278 11.9999L22.4107 11.9469C22.2833 11.5537 22.1159 11.1731 21.9135 10.815L21.7438 10.5154L21.607 10.8314C21.4463 11.2023 21.2569 11.5651 21.044 11.9095L20.9883 11.9999Z" fill="#191919"/>
<path d="M18.76 8.08821L18.5475 8.00562L18.5274 8.23277C18.497 8.57529 18.4452 8.91935 18.3731 9.25558L18.3481 9.37132L18.4471 9.43526C18.7344 9.62229 19.014 9.82919 19.278 10.0501L19.4528 10.1966L19.5449 9.98857C19.7101 9.61408 19.8385 9.22212 19.9263 8.82312L19.9521 8.70658L19.8514 8.6419C19.5073 8.42215 19.14 8.23549 18.76 8.08821Z" fill="#191919"/>
<path d="M15.5723 7.7357L15.6239 7.92662C15.6469 8.01194 15.6684 8.09767 15.6888 8.18378L15.713 8.28742L15.8164 8.31161C15.9025 8.33148 15.9882 8.35328 16.0734 8.37629L16.2645 8.42814L16.2883 8.23136C16.3029 8.10976 16.3142 7.9847 16.3218 7.86001L16.3333 7.66675L16.1404 7.67842C16.0155 7.68583 15.8906 7.69712 15.7686 7.71194L15.5723 7.7357Z" fill="#191919"/>
<path d="M18.4592 18.3318L18.3562 18.3563L18.3318 18.4592C18.2391 18.8519 18.1169 19.2416 17.9685 19.6164L17.8418 19.9367L18.1738 19.8443C18.5705 19.734 18.957 19.5836 19.3227 19.3978L19.3724 19.3724L19.3977 19.3226C19.5839 18.9567 19.7341 18.5702 19.8444 18.1739L19.9368 17.8416L19.6165 17.9686C19.2414 18.1167 18.8523 18.2391 18.4592 18.3318Z" fill="#191919"/>
<path d="M19.5449 14.0113L19.4528 13.8032L19.278 13.9498C19.014 14.1707 18.7344 14.3776 18.4471 14.5646L18.3481 14.6286L18.3731 14.7443C18.4452 15.0806 18.497 15.4246 18.5274 15.7671L18.5475 15.9943L18.76 15.9117C19.14 15.7644 19.5074 15.5777 19.8514 15.358L19.9521 15.2933L19.9264 15.1768C19.8385 14.7778 19.7101 14.3858 19.5449 14.0113Z" fill="#191919"/>
<path d="M18.1243 12.0001L17.9799 11.8719C17.8878 11.79 17.7917 11.7098 17.6951 11.6338L17.5394 11.5115L17.4406 11.6833C17.3966 11.7593 17.3516 11.8349 17.3052 11.91L17.2495 12L17.3052 12.09C17.3516 12.1652 17.3966 12.2408 17.4406 12.3168L17.5394 12.4886L17.6951 12.3663C17.7918 12.2902 17.8878 12.21 17.9799 12.1282L18.1243 12.0001Z" fill="#191919"/>
<path d="M17.2446 9.82652L17.1061 9.76029C16.4119 9.42715 15.671 9.20463 14.9011 9.09869C14.7951 8.32915 14.5729 7.58763 14.2397 6.89407L14.1732 6.75537L14.0283 6.80642C13.3001 7.06282 12.6184 7.42948 12 7.89743C11.3816 7.42943 10.6999 7.06278 9.97165 6.80642L9.82671 6.75537L9.76029 6.89407C9.42696 7.58806 9.20482 8.32915 9.09889 9.09869C8.32892 9.20468 7.58806 9.42719 6.89389 9.76029L6.75537 9.82652L6.80642 9.97146C7.06264 10.6997 7.42948 11.3816 7.89767 12C7.42948 12.6183 7.06264 13.3002 6.80642 14.0285L6.75537 14.1734L6.89389 14.2397C7.58787 14.5728 8.32896 14.7953 9.09889 14.9012C9.20487 15.6708 9.42701 16.4119 9.76029 17.1059L9.82671 17.2446L9.97165 17.1935C10.6999 16.9371 11.3816 16.5705 12 16.1025C12.6184 16.5705 13.3001 16.9372 14.0283 17.1935L14.1732 17.2446L14.2397 17.1059C14.573 16.4123 14.7951 15.6708 14.9011 14.9012C15.671 14.7953 16.4121 14.5727 17.1061 14.2397L17.2446 14.1734L17.1935 14.0285C16.9373 13.3002 16.5705 12.6183 16.1024 12C16.5705 11.3816 16.9374 10.6997 17.1935 9.97146L17.2446 9.82652ZM13.684 13.684C13.1525 13.9895 12.5863 14.2245 11.9999 14.383C11.4135 14.2244 10.8474 13.9895 10.3159 13.684C10.0104 13.1525 9.77525 12.5864 9.61671 12C9.77525 11.4136 10.0105 10.8474 10.3159 10.3159C10.8474 10.0105 11.4135 9.77547 11.9999 9.6169C12.5863 9.77552 13.1525 10.0105 13.684 10.3159C13.9895 10.8474 14.2247 11.4136 14.3832 12C14.2246 12.5864 13.9895 13.1526 13.684 13.684Z" fill="#191919"/>
<path d="M12.0901 21.0443L12.0001 20.9885L11.9101 21.0443C11.5653 21.2574 11.2026 21.4468 10.8316 21.6073L10.5156 21.7441L10.8155 21.9136C11.1733 22.1162 11.5542 22.2834 11.9472 22.4108L12.0001 22.4283L12.0531 22.4108C12.4461 22.2834 12.827 22.1162 13.1849 21.9136L13.4847 21.7441L13.1686 21.6073C12.7978 21.4467 12.435 21.2574 12.0901 21.0443Z" fill="#191919"/>
<path d="M14.7439 18.3727L14.6286 18.3481L14.5643 18.4467C14.3777 18.7343 14.1706 19.014 13.9493 19.2778L13.8027 19.4523L14.0114 19.5443C14.3854 19.7099 14.7774 19.8381 15.1766 19.9261L15.2933 19.9519L15.3576 19.851C15.5777 19.5069 15.7642 19.1398 15.9116 18.7599L15.9941 18.5472L15.7669 18.527C15.4244 18.497 15.0802 18.4448 14.7439 18.3727Z" fill="#191919"/>
<path d="M16.2883 15.7686L16.2645 15.5718L16.0734 15.6236C15.9883 15.6466 15.9024 15.6684 15.8164 15.6883L15.713 15.7129L15.6888 15.8161C15.6684 15.9022 15.6469 15.988 15.6239 16.0733L15.5723 16.2642L15.7687 16.288C15.8906 16.3028 16.0155 16.3137 16.1404 16.3215L16.3333 16.3332L16.3218 16.1399C16.3142 16.0152 16.3029 15.8902 16.2883 15.7686Z" fill="#191919"/>
<path d="M5.66849 18.4591L5.64411 18.3563L5.54103 18.3317C5.14789 18.239 4.75882 18.1167 4.38378 17.9686L4.06348 17.8416L4.15582 18.1739C4.26607 18.5702 4.41631 18.9567 4.60254 19.3226L4.6279 19.3724L4.67759 19.3978C5.04326 19.5836 5.4298 19.734 5.8265 19.8443L6.15847 19.9367L6.03182 19.6164C5.88336 19.2416 5.7612 18.8519 5.66849 18.4591Z" fill="#191919"/>
<path d="M9.43569 18.4467L9.37137 18.3481L9.25606 18.3727C8.91978 18.4448 8.57553 18.497 8.23302 18.527L8.00586 18.5473L8.08827 18.76C8.23573 19.1399 8.4222 19.5069 8.64233 19.851L8.70664 19.9519L8.82336 19.9262C9.22255 19.8382 9.61452 19.71 9.98858 19.5443L10.1973 19.4524L10.0507 19.2778C9.82939 19.014 9.6223 18.7343 9.43569 18.4467Z" fill="#191919"/>
<path d="M11.9998 18.1245L12.128 17.9799C12.2099 17.888 12.2899 17.7921 12.3661 17.6951L12.4885 17.5396L12.317 17.4411C12.2404 17.397 12.1648 17.3518 12.0898 17.3055L11.9998 17.2498L11.9098 17.3055C11.8348 17.3518 11.7593 17.3971 11.6827 17.4411L11.5112 17.5396L11.6336 17.6951C11.7098 17.7921 11.7898 17.888 11.8716 17.9799L11.9998 18.1245Z" fill="#191919"/>
<path d="M5.54102 5.66815L5.6441 5.64358L5.66848 5.54074C5.7612 5.14797 5.88335 4.75835 6.0318 4.38348L6.15846 4.06323L5.82649 4.15558C5.42979 4.26587 5.0433 4.4163 4.67759 4.60216L4.6279 4.62747L4.60254 4.67735C4.4163 5.04325 4.26607 5.42974 4.15582 5.8264L4.06348 6.15842L4.38377 6.03138C4.75882 5.88321 5.14788 5.76087 5.54102 5.66815Z" fill="#191919"/>
<path d="M9.25606 5.62727L9.37137 5.65183L9.43569 5.5533C9.6223 5.26572 9.82944 4.98597 10.0507 4.7222L10.1973 4.54722L9.98858 4.45567C9.61452 4.29006 9.22255 4.16186 8.82336 4.07383L8.70664 4.0481L8.64233 4.14902C8.42216 4.49308 8.23573 4.86016 8.08827 5.24003L8.00586 5.45275L8.23302 5.473C8.57553 5.503 8.91978 5.55522 9.25606 5.62727Z" fill="#191919"/>
<path d="M11.9998 5.87549L11.8716 6.02005C11.7898 6.11202 11.7098 6.20787 11.6336 6.3049L11.5112 6.46034L11.6827 6.55892C11.7592 6.60293 11.8348 6.64812 11.9098 6.69448L11.9998 6.75021L12.0898 6.69448C12.1648 6.64812 12.2404 6.60289 12.317 6.55892L12.4885 6.46034L12.3661 6.3049C12.2899 6.20787 12.2099 6.11202 12.128 6.02005L11.9998 5.87549Z" fill="#191919"/>
<path d="M2.39305 10.8314L2.25627 10.5154L2.08658 10.815C1.88417 11.173 1.71683 11.5537 1.58938 11.9469L1.57227 11.9999L1.58938 12.0529C1.71683 12.4461 1.88417 12.8267 2.08658 13.1848L2.25627 13.4844L2.39305 13.1684C2.55379 12.7975 2.74311 12.4347 2.95611 12.0903L3.01185 11.9999L2.95611 11.9095C2.74316 11.5651 2.55379 11.2023 2.39305 10.8314Z" fill="#191919"/>
<path d="M4.45505 9.98857L4.54721 10.1966L4.72196 10.0501C4.98596 9.82919 5.26552 9.62229 5.55287 9.43526L5.65182 9.37132L5.62688 9.25558C5.55484 8.9193 5.50299 8.57524 5.47257 8.23277L5.45251 8.00562L5.23998 8.08821C4.85987 8.23549 4.49265 8.42215 4.14859 8.6419L4.04785 8.70658L4.07359 8.82312C4.16148 9.22212 4.28987 9.61408 4.45505 9.98857Z" fill="#191919"/>
<path d="M7.71199 8.23136L7.73576 8.42814L7.92687 8.37629C8.01199 8.35333 8.09773 8.33148 8.18388 8.31161L8.28729 8.28742L8.31148 8.18378C8.33196 8.09767 8.35338 8.01194 8.37635 7.92662L8.42801 7.7357L8.2316 7.71194C8.10963 7.69712 7.98476 7.68583 7.85984 7.67842L7.66699 7.66675L7.67852 7.86001C7.68607 7.9847 7.69737 8.10976 7.71199 8.23136Z" fill="#191919"/>
<path d="M5.23998 15.9117L5.45251 15.9943L5.47257 15.7671C5.50294 15.4246 5.55479 15.0805 5.62688 14.7443L5.65182 14.6286L5.55287 14.5646C5.26552 14.3776 4.98596 14.1707 4.72196 13.9498L4.54721 13.8032L4.45505 14.0113C4.28987 14.3858 4.16148 14.7778 4.07359 15.1768L4.04785 15.2933L4.14859 15.358C4.49265 15.5777 4.85987 15.7644 5.23998 15.9117Z" fill="#191919"/>
<path d="M6.55917 11.6833L6.46035 11.5115L6.30473 11.6338C6.20807 11.7098 6.11207 11.79 6.01986 11.8719L5.87549 12.0001L6.01986 12.1283C6.11202 12.2101 6.20807 12.2904 6.30473 12.3664L6.46035 12.4887L6.55917 12.3169C6.60318 12.2409 6.64819 12.1653 6.69455 12.0901L6.75028 12.0001L6.69455 11.9101C6.64819 11.8349 6.60318 11.7593 6.55917 11.6833Z" fill="#191919"/>
<path d="M8.42801 16.2642L8.37635 16.0733C8.35338 15.988 8.33196 15.9022 8.31148 15.8161L8.28729 15.7129L8.18388 15.6883C8.09791 15.6684 8.01204 15.6466 7.92687 15.6236L7.73576 15.5718L7.71199 15.7686C7.69737 15.8902 7.68612 16.0152 7.67852 16.1399L7.66699 16.3332L7.85984 16.3215C7.98471 16.3137 8.10963 16.3028 8.2316 16.288L8.42801 16.2642Z" fill="#191919"/>
<path d="M13.0153 11.0593L12.99 11.0098L12.9405 10.9845C12.6544 10.8384 12.356 10.7144 12.053 10.6155L11.9999 10.5979L11.9467 10.6155C11.6438 10.7144 11.3453 10.8384 11.0593 10.9845L11.0098 11.0098L10.9845 11.0593C10.8386 11.3453 10.7144 11.6437 10.6155 11.9465L10.5981 11.9999L10.6155 12.0529C10.7144 12.356 10.8386 12.6544 10.9845 12.9405L11.0098 12.99L11.0593 13.0153C11.3453 13.1614 11.6437 13.2853 11.9467 13.3843L11.9999 13.4019L12.0531 13.3843C12.356 13.2853 12.6545 13.1614 12.9405 13.0153L12.99 12.99L13.0153 12.9405C13.1613 12.6545 13.2854 12.356 13.3843 12.0529L13.4017 11.9999L13.3843 11.9465C13.2853 11.6437 13.1612 11.3453 13.0153 11.0593Z" fill="#191919"/>
</svg>
