<svg width="120" height="27" viewBox="0 0 120 27" fill="none" xmlns="http://www.w3.org/2000/svg">
<g clip-path="url(#clip0)">
<path d="M48.72 23.0871C48.5929 22.8753 48.0565 22.0282 47.8659 21.7671V21.5482H48.72V20.9412H47.8659V19.6141H47.2235V20.9412H46.2635V21.5482H47.1741C46.9694 22.4588 46.5529 23.5247 46.1082 24.0824C46.2212 24.2588 46.3694 24.5482 46.4329 24.7318C46.7224 24.3082 47.0047 23.6659 47.2235 22.9741V26.0871H47.8659V22.5788C48.0424 22.9318 48.24 23.3129 48.3318 23.5459L48.72 23.0871ZM52.5882 23.1929V22.5929H51.0282V21.4777H52.3765V20.8777H51.0282V19.6141H50.3859V20.8777H49.7788C49.8424 20.6094 49.8988 20.3341 49.9412 20.0447L49.3341 19.9459C49.2212 20.7647 49.0024 21.5765 48.6424 22.0988C48.7835 22.1694 49.0518 22.3388 49.1647 22.4306C49.3341 22.1694 49.4824 21.8447 49.6024 21.4777H50.3859V22.5929H48.7694V23.1929H50.0471C49.6588 24.0329 49.0165 24.8235 48.3459 25.2471C48.4871 25.3671 48.6847 25.5929 48.7835 25.7553C49.4047 25.3106 49.9694 24.5694 50.3859 23.7435V26.0871H51.0282V23.6941C51.3671 24.4777 51.8329 25.24 52.3059 25.6988C52.4188 25.5294 52.6306 25.3035 52.7859 25.1835C52.2424 24.7459 51.7059 23.9765 51.3741 23.1929H52.5882ZM55.4329 23.08H56.6682V22.4447H53.6047V23.08H54.7765V24.9718C54.24 25.0706 53.7529 25.1624 53.3718 25.2259L53.5624 25.8894C54.4659 25.6918 55.7294 25.4165 56.9012 25.1482L56.8518 24.5553C56.3788 24.6541 55.8988 24.7529 55.4329 24.8377V23.08ZM57.9459 20.0024C58.2918 20.2494 58.7012 20.6165 58.8988 20.8635L59.3576 20.4541C59.1529 20.2141 58.7224 19.8682 58.3765 19.6424L57.9459 20.0024ZM59.6047 21.5059V20.8635H57.5788C57.5647 20.4682 57.5576 20.0518 57.5647 19.6424H56.8588C56.8588 20.0518 56.8729 20.4612 56.8871 20.8635H53.3506V21.5059H56.9294C57.1059 24.0471 57.6635 26.1012 58.8282 26.1012C59.4141 26.1012 59.6471 25.7553 59.76 24.4847C59.5765 24.4212 59.3294 24.2659 59.1812 24.1106C59.1388 25.0282 59.0541 25.4094 58.8847 25.4094C58.2706 25.4094 57.7765 23.7294 57.6212 21.5059H59.6047ZM62.0047 21.7459C62.6329 21.2729 63.1694 20.7435 63.5082 20.2494C63.8824 20.7647 64.4612 21.2941 65.0965 21.7459H62.0047ZM61.8706 22.3529H65.1741V21.8024C65.5835 22.0918 66.0141 22.3388 66.4235 22.5365C66.5365 22.3388 66.6847 22.1059 66.84 21.9435C65.7388 21.5129 64.5671 20.6518 63.8188 19.6141H63.1412C62.6118 20.4753 61.4612 21.4918 60.2541 22.0424C60.3953 22.1835 60.5718 22.4306 60.6424 22.5788C61.0659 22.3741 61.4824 22.12 61.8706 21.8447V22.3529ZM60.6565 23.7012H62.4071C62.2376 24.1741 61.9835 24.7388 61.7506 25.1765L60.7059 25.2118L60.7906 25.8541C61.9906 25.8047 63.7835 25.7271 65.4635 25.6424C65.5906 25.8118 65.6965 25.9671 65.7741 26.1012L66.3741 25.7271C66.0494 25.2047 65.3788 24.4565 64.7365 23.9129L64.1718 24.2165C64.4471 24.4635 64.7294 24.76 64.9906 25.0565C64.1294 25.0918 63.2541 25.1271 62.4706 25.1553C62.7247 24.7035 62.9859 24.1741 63.2188 23.7012H66.4518V23.0871H60.6565V23.7012ZM70.3553 23.5741C70.1929 23.4259 69.6071 22.9177 69.2753 22.6494C69.6282 22.1835 69.9388 21.6682 70.1506 21.1318L69.7835 20.8847L69.6706 20.9059H69.1835V19.6071H68.5341V20.9059H67.4682V21.5059H69.3177C68.8377 22.3882 68.0259 23.2071 67.2212 23.6659C67.32 23.7929 67.4824 24.1035 67.5459 24.2729C67.8777 24.0612 68.2165 23.7929 68.5341 23.4824V26.0871H69.1835V23.2777C69.4729 23.5671 69.7906 23.9059 69.9529 24.1106L70.3553 23.5741ZM72.3177 25.24V22.4729H73.7435V21.8377H72.3177V19.6635H71.6471V21.8377H70.2212V22.4729H71.6471V25.24H69.9388V25.8894H73.8918V25.24H72.3177ZM81.2302 21.7035H79.5008V21.3365H80.8984V20.9553H79.5008V20.6024H78.9078V20.9553H77.5808V21.3365H78.9078V21.7035H77.2067V22.0918H81.2302V21.7035ZM79.5502 23.56H80.602C80.4255 23.7012 80.2208 23.8494 80.0302 23.9765C79.8467 23.8494 79.6772 23.7082 79.5502 23.5671V23.56ZM78.1667 22.7271H80.2843V23.2071H78.1667V22.7271ZM80.8631 23.4329V22.3671H77.6161V23.56H78.8231C78.3431 23.92 77.6867 24.2165 77.0584 24.4141C77.1714 24.5129 77.3478 24.7318 77.4255 24.8377C77.8914 24.6612 78.3855 24.4212 78.8231 24.1388V25.0353H79.402V24.04C79.8396 24.4635 80.4467 24.8165 81.0396 25C81.1172 24.88 81.2725 24.6753 81.3855 24.5835C81.0467 24.4988 80.7078 24.3647 80.3972 24.1953C80.6584 24.0471 80.9549 23.8494 81.209 23.6447L80.8631 23.4329ZM76.9031 25.2188V20.4894H81.5337V25.2188H76.9031ZM76.289 19.8965V26.0871H76.9031V25.8118H81.5337V26.0871H82.1761V19.8965H76.289ZM85.0067 24.0894H84.6255V19.7624H84.0961V24.0894H83.7361V20.8071H83.2631V25.2682H83.7361V24.6188H85.0067V25.0565H85.4655V20.8071H85.0067V24.0894ZM87.3572 23.6377V24.3718H86.5031V23.6377H87.3572ZM87.8937 24.8447V23.1718H85.9808V25.2329H86.5031V24.8447H87.8937ZM85.9737 22.1553C86.7361 21.9859 87.1878 21.7318 87.4702 21.3506C87.9714 21.6118 88.5502 21.9365 88.889 22.1553H85.9737ZM89.5455 22.1553H88.9808L89.3549 21.7388C88.9667 21.4988 88.2678 21.1388 87.7102 20.8777C87.7243 20.8212 87.7384 20.7718 87.7525 20.7153H89.3337V20.1788H87.8514C87.8655 20.0024 87.8796 19.8118 87.8867 19.6071H87.2796C87.2725 19.8188 87.2584 20.0094 87.2372 20.1788H85.7408V20.7153H87.1172C86.9337 21.2235 86.5314 21.5059 85.6278 21.6824C85.7408 21.7953 85.882 22.0071 85.9384 22.1553H85.5361V22.7059H88.4655V25.3671C88.4655 25.4729 88.4302 25.5012 88.3172 25.5012C88.1972 25.5082 87.8161 25.5082 87.3996 25.4941C87.4914 25.6565 87.5902 25.9106 87.6255 26.0871C88.169 26.0871 88.5361 26.0729 88.769 25.9812C89.009 25.8824 89.0796 25.7129 89.0796 25.3812V22.7059H89.5455V22.1553ZM90.4278 23.6447C90.3572 24.2518 90.2231 24.8729 90.0114 25.2965C90.1455 25.3459 90.4067 25.4659 90.5125 25.5435C90.7314 25.0918 90.8937 24.4071 90.9855 23.7435L90.4278 23.6447ZM92.3408 23.1506C92.3972 23.2988 92.4396 23.4329 92.4678 23.5459L92.969 23.3059C92.8702 22.9177 92.5808 22.3177 92.2914 21.8588L91.8184 22.0635C91.9243 22.24 92.0231 22.4306 92.1149 22.6282L91.1761 22.6635C91.649 22.0777 92.1784 21.3012 92.5808 20.6588L92.0231 20.4188C91.8396 20.7859 91.5855 21.2235 91.3102 21.6471C91.2184 21.52 91.0984 21.3788 90.9643 21.2377C91.2184 20.8565 91.5149 20.2988 91.769 19.8188L91.1761 19.6071C91.049 19.9882 90.8161 20.4965 90.5972 20.8847C90.5337 20.8282 90.4702 20.7718 90.4067 20.7153L90.089 21.1529C90.3996 21.4494 90.7596 21.8306 90.9784 22.1412C90.8372 22.3388 90.7031 22.5224 90.569 22.6918L90.0749 22.7059L90.1314 23.2847C90.4561 23.2635 90.8302 23.2424 91.2325 23.2212V26.0941H91.8184V23.1859L92.3408 23.1506ZM91.9737 23.7718C92.1502 24.2024 92.3408 24.76 92.4043 25.1271L92.9267 24.9435C92.849 24.5835 92.6584 24.0329 92.4678 23.6094L91.9737 23.7718ZM93.8655 24.0824H95.4537V25.2965H93.8655V24.0824ZM95.4537 20.5741V21.7318H93.8655V20.5741H95.4537ZM95.4537 23.4894H93.8655V22.3247H95.4537V23.4894ZM96.1172 25.2965V19.9812H93.2231V25.2965H92.5243V25.8894H96.6255V25.2965H96.1172Z" fill="#191919"/>
<path d="M31.4338 7.86447H28.7385V7.03726C28.7385 6.65123 28.704 6.40537 28.6351 6.29967C28.5662 6.19397 28.4513 6.14112 28.2904 6.14112C28.1158 6.14112 27.9825 6.21235 27.8906 6.35482C27.8033 6.49728 27.7597 6.71327 27.7597 7.00279C27.7597 7.37504 27.8102 7.65537 27.9113 7.84379C28.0078 8.0322 28.2813 8.25969 28.7316 8.52623C30.023 9.29369 30.8364 9.92329 31.1719 10.415C31.5074 10.9067 31.6751 11.6995 31.6751 12.7932C31.6751 13.5883 31.5809 14.1742 31.3925 14.551C31.2086 14.9279 30.8502 15.245 30.3171 15.5023C29.784 15.7551 29.1636 15.8815 28.4559 15.8815C27.6792 15.8815 27.0152 15.7344 26.4637 15.4403C25.9168 15.1462 25.5584 14.7716 25.3883 14.3167C25.2183 13.8617 25.1333 13.216 25.1333 12.3796V11.6489H27.8286V13.0069C27.8286 13.4251 27.8654 13.694 27.9389 13.8135C28.017 13.9329 28.1526 13.9927 28.3456 13.9927C28.5386 13.9927 28.6811 13.9169 28.773 13.7652C28.8695 13.6135 28.9177 13.3884 28.9177 13.0896C28.9177 12.4325 28.8281 12.0028 28.6489 11.8006C28.4651 11.5984 28.0124 11.2606 27.2909 10.7873C26.5694 10.3093 26.0915 9.96235 25.8571 9.74636C25.6227 9.53037 25.4274 9.23165 25.2711 8.85022C25.1195 8.46879 25.0437 7.98165 25.0437 7.38882C25.0437 6.53404 25.1517 5.90904 25.3677 5.51382C25.5882 5.1186 25.9421 4.8107 26.4292 4.59011C26.9164 4.36493 27.5046 4.25233 28.1939 4.25233C28.9476 4.25233 29.5887 4.37412 30.1172 4.61768C30.6503 4.86125 31.0018 5.16915 31.1719 5.5414C31.3465 5.90904 31.4338 6.53634 31.4338 7.42329V7.86447ZM39.2234 11.0216C39.2234 12.143 39.1958 12.938 39.1406 13.4067C39.0901 13.8709 38.9246 14.296 38.6443 14.682C38.3686 15.0681 37.994 15.3645 37.5207 15.5713C37.0473 15.7781 36.4959 15.8815 35.8663 15.8815C35.2688 15.8815 34.7312 15.785 34.2532 15.5919C33.7799 15.3943 33.3984 15.1002 33.1089 14.7096C32.8194 14.319 32.6471 13.8939 32.5919 13.4343C32.5368 12.9748 32.5092 12.1705 32.5092 11.0216V9.11217C32.5092 7.99084 32.5345 7.19811 32.585 6.73395C32.6402 6.2652 32.8056 5.83781 33.0813 5.45178C33.3617 5.06575 33.7385 4.76934 34.2119 4.56254C34.6852 4.35573 35.2367 4.25233 35.8663 4.25233C36.4637 4.25233 36.9991 4.35114 37.4724 4.54875C37.9504 4.74176 38.3341 5.03358 38.6236 5.42421C38.9131 5.81483 39.0855 6.23993 39.1406 6.69948C39.1958 7.15904 39.2234 7.96327 39.2234 9.11217V11.0216ZM36.3212 7.35436C36.3212 6.83505 36.2914 6.50417 36.2316 6.36171C36.1765 6.21465 36.0593 6.14112 35.8801 6.14112C35.7284 6.14112 35.6112 6.20086 35.5285 6.32035C35.4504 6.43524 35.4113 6.77991 35.4113 7.35436V12.5658C35.4113 13.2137 35.4366 13.6135 35.4871 13.7652C35.5423 13.9169 35.6664 13.9927 35.8594 13.9927C36.057 13.9927 36.1834 13.9054 36.2385 13.7307C36.2937 13.5561 36.3212 13.1402 36.3212 12.483V7.35436ZM46.7923 4.48671V15.6471H44.2486L42.739 10.5736V15.6471H40.3125V4.48671H42.739L44.3658 9.51198V4.48671H46.7923ZM54.5956 11.0216C54.5956 12.143 54.568 12.938 54.5129 13.4067C54.4623 13.8709 54.2969 14.296 54.0165 14.682C53.7408 15.0681 53.3663 15.3645 52.8929 15.5713C52.4196 15.7781 51.8681 15.8815 51.2385 15.8815C50.6411 15.8815 50.1034 15.785 49.6255 15.5919C49.1521 15.3943 48.7707 15.1002 48.4812 14.7096C48.1916 14.319 48.0193 13.8939 47.9642 13.4343C47.909 12.9748 47.8814 12.1705 47.8814 11.0216V9.11217C47.8814 7.99084 47.9067 7.19811 47.9573 6.73395C48.0124 6.2652 48.1779 5.83781 48.4536 5.45178C48.7339 5.06575 49.1108 4.76934 49.5841 4.56254C50.0574 4.35573 50.6089 4.25233 51.2385 4.25233C51.8359 4.25233 52.3713 4.35114 52.8447 4.54875C53.3226 4.74176 53.7063 5.03358 53.9959 5.42421C54.2854 5.81483 54.4577 6.23993 54.5129 6.69948C54.568 7.15904 54.5956 7.96327 54.5956 9.11217V11.0216ZM51.6935 7.35436C51.6935 6.83505 51.6636 6.50417 51.6039 6.36171C51.5487 6.21465 51.4315 6.14112 51.2523 6.14112C51.1006 6.14112 50.9835 6.20086 50.9007 6.32035C50.8226 6.43524 50.7836 6.77991 50.7836 7.35436V12.5658C50.7836 13.2137 50.8088 13.6135 50.8594 13.7652C50.9145 13.9169 51.0386 13.9927 51.2316 13.9927C51.4292 13.9927 51.5556 13.9054 51.6108 13.7307C51.6659 13.5561 51.6935 13.1402 51.6935 12.483V7.35436ZM60.5377 4.48671V6.72016L58.3732 13.4136H60.5377V15.6471H55.1884V14.0271L57.4219 6.72016H55.4504V4.48671H60.5377ZM66.3074 4.48671L67.9688 15.6471H64.9977L64.8529 13.6411H63.812L63.6397 15.6471H60.6342L62.1094 4.48671H66.3074ZM64.7702 11.6627C64.6232 10.3989 64.4761 8.83873 64.329 6.98211C64.0349 9.11447 63.8511 10.6747 63.7776 11.6627H64.7702ZM75.3791 4.48671L73.7178 9.52577L75.5377 15.6471H72.5391L71.3672 10.8631V15.6471H68.4651V4.48671H71.3672V8.82265L72.6563 4.48671H75.3791ZM78.9499 4.48671V15.6471H76.0478V4.48671H78.9499ZM89.3865 9.35344H86.4844V7.4095C86.4844 6.84425 86.4522 6.49268 86.3879 6.35482C86.3281 6.21235 86.1926 6.14112 85.9812 6.14112C85.7422 6.14112 85.5905 6.22614 85.5262 6.39618C85.4619 6.56621 85.4297 6.93386 85.4297 7.49912V12.6829C85.4297 13.2252 85.4619 13.5791 85.5262 13.7445C85.5905 13.91 85.7353 13.9927 85.9605 13.9927C86.1765 13.9927 86.3166 13.91 86.381 13.7445C86.4499 13.5791 86.4844 13.1908 86.4844 12.5795V11.1802H89.3865V11.6145C89.3865 12.768 89.3038 13.586 89.1383 14.0685C88.9775 14.551 88.6167 14.9738 88.0561 15.3369C87.5 15.6999 86.813 15.8815 85.9949 15.8815C85.1448 15.8815 84.4439 15.7275 83.8925 15.4196C83.341 15.1117 82.9756 14.6866 82.7964 14.1443C82.6172 13.5975 82.5276 12.7771 82.5276 11.6834V8.42283C82.5276 7.6186 82.5552 7.01658 82.6103 6.61676C82.6654 6.21235 82.8286 5.82402 83.0997 5.45178C83.3755 5.07954 83.7546 4.78772 84.2371 4.57632C84.7243 4.36033 85.2826 4.25233 85.9122 4.25233C86.767 4.25233 87.4724 4.41777 88.0285 4.74866C88.5846 5.07954 88.9499 5.49314 89.1245 5.98947C89.2992 6.48119 89.3865 7.24866 89.3865 8.29186V9.35344ZM97.0588 11.0216C97.0588 12.143 97.0313 12.938 96.9761 13.4067C96.9256 13.8709 96.7601 14.296 96.4798 14.682C96.204 15.0681 95.8295 15.3645 95.3562 15.5713C94.8828 15.7781 94.3313 15.8815 93.7018 15.8815C93.1043 15.8815 92.5666 15.785 92.0887 15.5919C91.6154 15.3943 91.2339 15.1002 90.9444 14.7096C90.6549 14.319 90.4825 13.8939 90.4274 13.4343C90.3722 12.9748 90.3447 12.1705 90.3447 11.0216V9.11217C90.3447 7.99084 90.3699 7.19811 90.4205 6.73395C90.4756 6.2652 90.6411 5.83781 90.9168 5.45178C91.1972 5.06575 91.574 4.76934 92.0473 4.56254C92.5207 4.35573 93.0722 4.25233 93.7018 4.25233C94.2992 4.25233 94.8346 4.35114 95.3079 4.54875C95.7859 4.74176 96.1696 5.03358 96.4591 5.42421C96.7486 5.81483 96.921 6.23993 96.9761 6.69948C97.0313 7.15904 97.0588 7.96327 97.0588 9.11217V11.0216ZM94.1567 7.35436C94.1567 6.83505 94.1268 6.50417 94.0671 6.36171C94.012 6.21465 93.8948 6.14112 93.7155 6.14112C93.5639 6.14112 93.4467 6.20086 93.364 6.32035C93.2859 6.43524 93.2468 6.77991 93.2468 7.35436V12.5658C93.2468 13.2137 93.2721 13.6135 93.3226 13.7652C93.3778 13.9169 93.5018 13.9927 93.6949 13.9927C93.8925 13.9927 94.0188 13.9054 94.074 13.7307C94.1291 13.5561 94.1567 13.1402 94.1567 12.483V7.35436ZM99.9196 13.3723V15.6471H97.8171V13.3723H99.9196ZM103.656 4.48671V13.4136H105.421V15.6471H100.754V4.48671H103.656ZM111.976 4.48671V6.72016H110.253V15.6471H107.351V6.72016H105.634V4.48671H111.976ZM112.638 4.48671H114.809C116.211 4.48671 117.158 4.55105 117.649 4.67972C118.146 4.8084 118.523 5.0198 118.78 5.31391C119.037 5.60803 119.198 5.93662 119.262 6.29967C119.327 6.65812 119.359 7.36584 119.359 8.42283V12.3314C119.359 13.3332 119.311 14.0042 119.214 14.3442C119.122 14.6797 118.959 14.944 118.725 15.137C118.49 15.3254 118.201 15.4587 117.856 15.5368C117.511 15.6103 116.992 15.6471 116.298 15.6471H112.638V4.48671ZM115.54 6.39618V13.7376C115.958 13.7376 116.216 13.6549 116.312 13.4895C116.409 13.3194 116.457 12.8622 116.457 12.1177V7.78175C116.457 7.27623 116.441 6.95224 116.409 6.80978C116.376 6.66732 116.303 6.56391 116.188 6.49958C116.073 6.43064 115.857 6.39618 115.54 6.39618Z" fill="#191919"/>
<g clip-path="url(#clip1)">
<path d="M10.5089 2.608L10.5883 2.65718L10.6677 2.608C10.972 2.41993 11.292 2.25284 11.6194 2.11122L11.8982 1.99053L11.6337 1.84098C11.3179 1.66222 10.9818 1.51468 10.6351 1.40227L10.5883 1.38684L10.5416 1.40231C10.1948 1.51473 9.85875 1.66222 9.54301 1.84102L9.27843 1.99057L9.55723 2.11126C9.88456 2.25288 10.2046 2.41998 10.5089 2.608Z" fill="#191919"/>
<path d="M21.1765 8.93866C21.1765 6.61177 19.9319 4.43614 17.9265 3.25001C16.7405 1.24461 14.5647 0 12.2377 0C11.6808 0 11.1263 0.0704779 10.5882 0.209035C10.0502 0.0704779 9.49562 0 8.93883 0C6.61177 0 4.43597 1.24461 3.25001 3.25001C1.24461 4.43614 0 6.61177 0 8.93866C0 9.49562 0.0706434 10.0502 0.209035 10.5882C0.0706434 11.1263 0 11.6808 0 12.2378C0 14.5647 1.24461 16.7403 3.25001 17.9265C4.43597 19.9319 6.61177 21.1765 8.93883 21.1765C9.49562 21.1765 10.0502 21.106 10.5882 20.9674C11.1263 21.106 11.6808 21.1765 12.2377 21.1765C14.5647 21.1765 16.7405 19.9319 17.9265 17.9265C19.9319 16.7403 21.1765 14.5647 21.1765 12.2378C21.1765 11.6808 21.1058 11.1263 20.9674 10.5882C21.1058 10.0502 21.1765 9.49562 21.1765 8.93866ZM18.5649 13.8148L18.5025 13.8664L18.5105 13.9465C18.5309 14.1559 18.5414 14.366 18.5414 14.5705C18.5414 15.6707 18.2521 16.7534 17.7052 17.705C16.7536 18.252 15.6705 18.5412 14.5704 18.5412C14.366 18.5412 14.1561 18.5308 13.9467 18.5106L13.8662 18.5023L13.815 18.5652C12.9748 19.5898 11.8595 20.3111 10.5882 20.6549C9.31703 20.3111 8.2017 19.5898 7.36143 18.5652L7.31022 18.5023L7.22978 18.5106C7.02037 18.5308 6.81047 18.5412 6.60611 18.5412C5.50592 18.5412 4.42295 18.252 3.47129 17.705C2.92446 16.7534 2.63515 15.6707 2.63515 14.5705C2.63515 14.366 2.64565 14.1559 2.66608 13.9465L2.67398 13.8664L2.61161 13.8148C1.58699 12.9746 0.86534 11.8596 0.521884 10.5882C0.86534 9.31686 1.58699 8.20187 2.61157 7.36164L2.67394 7.31006L2.66604 7.22994C2.64561 7.02058 2.63511 6.81051 2.63511 6.60594C2.63511 5.50576 2.92442 4.42311 3.47125 3.47145C4.4229 2.92442 5.50588 2.63531 6.60607 2.63531C6.81043 2.63531 7.02033 2.64565 7.22974 2.66592L7.31018 2.67415L7.36139 2.61124C8.2017 1.58666 9.31703 0.86534 10.5882 0.521553C11.8595 0.86534 12.9748 1.58666 13.815 2.6112L13.8662 2.67411L13.9467 2.66588C14.1561 2.64561 14.366 2.63527 14.5704 2.63527C15.6705 2.63527 16.7536 2.92438 17.7052 3.47141C18.2521 4.42307 18.5414 5.50572 18.5414 6.6059C18.5414 6.81047 18.5309 7.02054 18.5105 7.2299L18.5025 7.31002L18.5649 7.36159C19.5895 8.20187 20.3111 9.31682 20.6546 10.5882C20.3111 11.8596 19.5895 12.9746 18.5649 13.8148Z" fill="#191919"/>
<path d="M16.1751 4.88897L16.1965 4.97972L16.2874 5.00139C16.6343 5.0832 16.9776 5.19115 17.3085 5.32181L17.5911 5.4339L17.5096 5.14094C17.4123 4.79095 17.2798 4.44993 17.1154 4.12707L17.0931 4.08306L17.0493 4.06073C16.7266 3.89673 16.3855 3.76401 16.0356 3.66669L15.7426 3.58521L15.8544 3.86778C15.9854 4.19858 16.0932 4.54237 16.1751 4.88897Z" fill="#191919"/>
<path d="M12.851 4.90006L12.9077 4.987L13.0095 4.96533C13.3062 4.90176 13.61 4.85568 13.9122 4.82917L14.1126 4.8113L14.0399 4.62361C13.9098 4.28843 13.7452 3.96453 13.551 3.66095L13.4943 3.5719L13.3913 3.59461C13.0391 3.67228 12.6932 3.7854 12.3632 3.93153L12.1791 4.0123L12.3084 4.1667C12.5036 4.39948 12.6863 4.64632 12.851 4.90006Z" fill="#191919"/>
<path d="M18.5193 10.5882L18.5684 10.668C18.7563 10.9719 18.9233 11.292 19.0652 11.6193L19.1859 11.8981L19.3356 11.6337C19.5142 11.3178 19.6619 10.9819 19.7743 10.6349L19.7894 10.5882L19.7743 10.5415C19.6619 10.1945 19.5142 9.85864 19.3356 9.54269L19.1859 9.27832L19.0652 9.55713C18.9233 9.88445 18.7563 10.2045 18.5684 10.5084L18.5193 10.5882Z" fill="#191919"/>
<path d="M16.5527 7.1366L16.3652 7.06372L16.3475 7.26415C16.3207 7.56637 16.2749 7.86996 16.2113 8.16663L16.1893 8.26875L16.2766 8.32517C16.5302 8.4902 16.7769 8.67276 17.0098 8.86769L17.164 8.99698L17.2453 8.81338C17.3911 8.48296 17.5043 8.1371 17.5818 7.78504L17.6046 7.68222L17.5157 7.62515C17.2121 7.43125 16.8881 7.26655 16.5527 7.1366Z" fill="#191919"/>
<path d="M13.7401 6.82561L13.7856 6.99407C13.806 7.06935 13.8249 7.145 13.8429 7.22097L13.8642 7.31242L13.9555 7.33376C14.0315 7.3513 14.1071 7.37053 14.1822 7.39084L14.3509 7.43659L14.3718 7.26296C14.3847 7.15567 14.3947 7.04532 14.4014 6.9353L14.4116 6.76477L14.2414 6.77507C14.1312 6.7816 14.021 6.79157 13.9133 6.80464L13.7401 6.82561Z" fill="#191919"/>
<path d="M16.2875 16.1751L16.1966 16.1968L16.1751 16.2875C16.0933 16.6341 15.9855 16.9779 15.8545 17.3086L15.7428 17.5912L16.0357 17.5097C16.3857 17.4124 16.7267 17.2797 17.0494 17.1157L17.0933 17.0933L17.1156 17.0493C17.2799 16.7265 17.4125 16.3855 17.5098 16.0358L17.5913 15.7426L17.3087 15.8546C16.9777 15.9853 16.6344 16.0933 16.2875 16.1751Z" fill="#191919"/>
<path d="M17.2453 12.3629L17.164 12.1793L17.0098 12.3086C16.7769 12.5035 16.5302 12.6861 16.2766 12.8511L16.1893 12.9076L16.2113 13.0097C16.2749 13.3064 16.3206 13.61 16.3475 13.9122L16.3652 14.1126L16.5527 14.0397C16.8881 13.9098 17.2122 13.7451 17.5158 13.5512L17.6046 13.4941L17.5819 13.3913C17.5043 13.0392 17.3911 12.6933 17.2453 12.3629Z" fill="#191919"/>
<path d="M15.9922 10.5884L15.8648 10.4752C15.7835 10.403 15.6987 10.3322 15.6135 10.2652L15.4761 10.1572L15.3889 10.3088C15.3501 10.3759 15.3104 10.4426 15.2695 10.5089L15.2203 10.5883L15.2695 10.6677C15.3104 10.7341 15.3501 10.8007 15.3889 10.8678L15.4761 11.0194L15.6135 10.9115C15.6987 10.8444 15.7835 10.7736 15.8648 10.7014L15.9922 10.5884Z" fill="#191919"/>
<path d="M15.2159 8.67041L15.0937 8.61197C14.4812 8.31802 13.8275 8.12168 13.1481 8.02821C13.0546 7.3492 12.8586 6.69492 12.5645 6.08296L12.5059 5.96057L12.378 6.00561C11.7354 6.23185 11.1339 6.55537 10.5883 6.96827C10.0427 6.55533 9.44123 6.23181 8.79862 6.00561L8.67073 5.96057L8.61213 6.08296C8.31801 6.69529 8.12201 7.3492 8.02853 8.02821C7.34915 8.12172 6.69545 8.31806 6.08294 8.61197L5.96072 8.67041L6.00577 8.7983C6.23184 9.44087 6.55553 10.0425 6.96863 10.5882C6.55553 11.1338 6.23184 11.7354 6.00577 12.378L5.96072 12.5059L6.08294 12.5643C6.69528 12.8583 7.34919 13.0546 8.02853 13.1481C8.12205 13.8271 8.31805 14.4811 8.61213 15.0934L8.67073 15.2157L8.79862 15.1707C9.44119 14.9445 10.0427 14.6209 10.5883 14.208C11.1339 14.621 11.7354 14.9445 12.378 15.1707L12.5059 15.2157L12.5645 15.0934C12.8586 14.4814 13.0546 13.8271 13.1481 13.1481C13.8275 13.0546 14.4814 12.8583 15.0937 12.5643L15.2159 12.5059L15.1709 12.378C14.9448 11.7354 14.6212 11.1338 14.2081 10.5882C14.6212 10.0425 14.9448 9.44087 15.1709 8.7983L15.2159 8.67041ZM12.0742 12.0741C11.6053 12.3436 11.1057 12.5509 10.5883 12.6909C10.0709 12.5509 9.57131 12.3436 9.10237 12.0741C8.83282 11.6051 8.62532 11.1056 8.48544 10.5882C8.62532 10.0707 8.83287 9.57115 9.10237 9.10225C9.57131 8.83271 10.0709 8.62537 10.5883 8.48545C11.1057 8.62541 11.6053 8.83271 12.0742 9.10225C12.3438 9.57119 12.5513 10.0707 12.6912 10.5882C12.5512 11.1056 12.3438 11.6052 12.0742 12.0741Z" fill="#191919"/>
<path d="M10.6677 18.5685L10.5883 18.5193L10.5089 18.5685C10.2046 18.7565 9.88456 18.9236 9.55723 19.0652L9.27843 19.1859L9.54301 19.3355C9.85875 19.5143 10.1948 19.6618 10.5416 19.7742L10.5883 19.7897L10.635 19.7742C10.9818 19.6618 11.3178 19.5143 11.6336 19.3355L11.8982 19.1859L11.6193 19.0652C11.2921 18.9236 10.972 18.7565 10.6677 18.5685Z" fill="#191919"/>
<path d="M13.0095 16.2112L12.9077 16.1896L12.851 16.2765C12.6863 16.5303 12.5035 16.7771 12.3083 17.0098L12.179 17.1639L12.3631 17.245C12.6931 17.3911 13.039 17.5043 13.3912 17.5819L13.4942 17.6046L13.5509 17.5156C13.7452 17.212 13.9097 16.8881 14.0398 16.5529L14.1125 16.3652L13.9121 16.3474C13.6099 16.3209 13.3061 16.2748 13.0095 16.2112Z" fill="#191919"/>
<path d="M14.3718 13.9134L14.3509 13.7397L14.1822 13.7855C14.1071 13.8058 14.0313 13.825 13.9555 13.8426L13.8642 13.8642L13.8429 13.9554C13.8249 14.0313 13.806 14.107 13.7856 14.1823L13.7401 14.3507L13.9134 14.3717C14.021 14.3848 14.1312 14.3944 14.2414 14.4013L14.4116 14.4116L14.4015 14.241C14.3947 14.131 14.3847 14.0207 14.3718 13.9134Z" fill="#191919"/>
<path d="M5.00139 16.2875L4.97988 16.1967L4.88893 16.1751C4.54204 16.0932 4.19875 15.9853 3.86782 15.8546L3.58521 15.7426L3.66669 16.0358C3.76397 16.3855 3.89653 16.7265 4.06085 17.0493L4.08323 17.0933L4.12707 17.1157C4.44972 17.2797 4.79078 17.4124 5.14082 17.5097L5.43373 17.5912L5.32197 17.3086C5.19099 16.9779 5.0832 16.6341 5.00139 16.2875Z" fill="#191919"/>
<path d="M8.32544 16.2765L8.26869 16.1896L8.16695 16.2112C7.87023 16.2748 7.56648 16.3209 7.26426 16.3474L7.06383 16.3653L7.13654 16.553C7.26666 16.8882 7.43119 17.212 7.62542 17.5156L7.68216 17.6047L7.78515 17.582C8.13738 17.5043 8.48323 17.3912 8.81329 17.245L8.99742 17.1639L8.86813 17.0099C8.67283 16.7771 8.4901 16.5303 8.32544 16.2765Z" fill="#191919"/>
<path d="M10.5882 15.9922L10.7013 15.8646C10.7735 15.7835 10.8441 15.6989 10.9114 15.6133L11.0193 15.4761L10.868 15.3891C10.8004 15.3503 10.7338 15.3104 10.6676 15.2695L10.5882 15.2203L10.5088 15.2695C10.4426 15.3104 10.3759 15.3503 10.3083 15.3891L10.157 15.4761L10.265 15.6133C10.3322 15.6989 10.4028 15.7835 10.4751 15.8646L10.5882 15.9922Z" fill="#191919"/>
<path d="M4.88898 5.00131L4.97994 4.97963L5.00144 4.88889C5.08325 4.54233 5.19104 4.19854 5.32203 3.86778L5.43378 3.58521L5.14087 3.66669C4.79084 3.76401 4.44982 3.89673 4.12713 4.06073L4.08329 4.08306L4.06091 4.12707C3.89659 4.44993 3.76403 4.79095 3.66675 5.14094L3.58527 5.4339L3.86788 5.32181C4.1988 5.19107 4.5421 5.08312 4.88898 5.00131Z" fill="#191919"/>
<path d="M8.16695 4.96529L8.26869 4.98696L8.32544 4.90002C8.4901 4.64627 8.67287 4.39944 8.86813 4.1667L8.99742 4.0123L8.81329 3.93153C8.48323 3.7854 8.13738 3.67228 7.78515 3.59461L7.68216 3.5719L7.62542 3.66095C7.43115 3.96453 7.26666 4.28843 7.13654 4.62361L7.06383 4.8113L7.26426 4.82917C7.56648 4.85564 7.87023 4.90172 8.16695 4.96529Z" fill="#191919"/>
<path d="M10.5882 5.1842L10.4751 5.31176C10.4028 5.39291 10.3322 5.47749 10.265 5.5631L10.157 5.70025L10.3083 5.78723C10.3759 5.82607 10.4426 5.86594 10.5088 5.90684L10.5882 5.95602L10.6676 5.90684C10.7338 5.86594 10.8004 5.82602 10.868 5.78723L11.0193 5.70025L10.9114 5.5631C10.8441 5.47749 10.7735 5.39291 10.7013 5.31176L10.5882 5.1842Z" fill="#191919"/>
<path d="M2.11135 9.55713L1.99066 9.27832L1.84094 9.54269C1.66234 9.8586 1.51469 10.1945 1.40223 10.5415L1.38713 10.5882L1.40223 10.6349C1.51469 10.9819 1.66234 11.3177 1.84094 11.6337L1.99066 11.8981L2.11135 11.6193C2.25318 11.2919 2.42023 10.9718 2.60817 10.668L2.65735 10.5882L2.60817 10.5084C2.42027 10.2045 2.25318 9.88441 2.11135 9.55713Z" fill="#191919"/>
<path d="M3.93103 8.81339L4.01234 8.99698L4.16653 8.86769C4.39948 8.67276 4.64615 8.4902 4.89969 8.32517L4.987 8.26875L4.96499 8.16663C4.90142 7.86992 4.85568 7.56633 4.82884 7.26415L4.81113 7.06372L4.62361 7.1366C4.28822 7.26655 3.9642 7.43125 3.66061 7.62515L3.57173 7.68222L3.59444 7.78504C3.67199 8.1371 3.78527 8.48296 3.93103 8.81339Z" fill="#191919"/>
<path d="M6.80458 7.26296L6.82555 7.43659L6.99418 7.39084C7.06929 7.37057 7.14494 7.3513 7.22096 7.33376L7.3122 7.31242L7.33354 7.22097C7.35161 7.145 7.37052 7.06935 7.39078 6.99407L7.43636 6.82561L7.26306 6.80464C7.15544 6.79157 7.04526 6.7816 6.93503 6.77507L6.76488 6.76477L6.77505 6.9353C6.78171 7.04532 6.79168 7.15567 6.80458 7.26296Z" fill="#191919"/>
<path d="M4.62371 14.0397L4.81124 14.1126L4.82894 13.9122C4.85574 13.6099 4.90149 13.3063 4.9651 13.0097L4.9871 12.9076L4.89979 12.8511C4.64625 12.6861 4.39958 12.5035 4.16664 12.3086L4.01245 12.1793L3.93114 12.3629C3.78538 12.6933 3.6721 13.0392 3.59455 13.3913L3.57184 13.4941L3.66072 13.5512C3.96431 13.7451 4.28832 13.9098 4.62371 14.0397Z" fill="#191919"/>
<path d="M5.78751 10.3088L5.70032 10.1572L5.56301 10.2652C5.47772 10.3323 5.39301 10.403 5.31166 10.4752L5.18427 10.5884L5.31166 10.7015C5.39297 10.7737 5.47772 10.8445 5.56301 10.9115L5.70032 11.0195L5.78751 10.8679C5.82635 10.8008 5.86606 10.7341 5.90696 10.6678L5.95614 10.5884L5.90696 10.509C5.86606 10.4426 5.82635 10.3759 5.78751 10.3088Z" fill="#191919"/>
<path d="M7.43636 14.3507L7.39078 14.1823C7.37052 14.107 7.35161 14.0313 7.33354 13.9554L7.3122 13.8642L7.22096 13.8426C7.1451 13.825 7.06933 13.8058 6.99418 13.7855L6.82555 13.7397L6.80458 13.9134C6.79168 14.0207 6.78175 14.131 6.77505 14.241L6.76488 14.4116L6.93503 14.4013C7.04522 14.3944 7.15544 14.3848 7.26306 14.3717L7.43636 14.3507Z" fill="#191919"/>
<path d="M11.4842 9.75818L11.4619 9.71451L11.4182 9.69217C11.1659 9.56325 10.9026 9.4539 10.6352 9.36658L10.5883 9.35107L10.5414 9.36658C10.2741 9.4539 10.0107 9.56325 9.75837 9.69217L9.71469 9.71451L9.69236 9.75818C9.56361 10.0105 9.45409 10.2739 9.36677 10.541L9.35147 10.5881L9.36677 10.6349C9.45409 10.9024 9.56361 11.1657 9.69236 11.4181L9.71469 11.4617L9.75837 11.4841C10.0107 11.613 10.274 11.7223 10.5414 11.8097L10.5883 11.8252L10.6352 11.8097C10.9026 11.7223 11.1659 11.613 11.4183 11.4841L11.4619 11.4617L11.4843 11.4181C11.6131 11.1657 11.7226 10.9024 11.8099 10.6349L11.8252 10.5881L11.8099 10.541C11.7225 10.2739 11.613 10.0105 11.4842 9.75818Z" fill="#191919"/>
</g>
</g>
<defs>
<clipPath id="clip0">
<rect width="120" height="26.57" fill="white"/>
</clipPath>
<clipPath id="clip1">
<rect width="21.1765" height="21.1765" fill="white"/>
</clipPath>
</defs>
</svg>
