<svg width="272" height="60" viewBox="0 0 272 60" fill="none" xmlns="http://www.w3.org/2000/svg">
<path d="M110.432 52.464C110.144 51.984 108.928 50.064 108.496 49.472V48.976H110.432V47.6H108.496V44.592H107.04V47.6H104.864V48.976H106.928C106.464 51.04 105.52 53.456 104.512 54.72C104.768 55.12 105.104 55.776 105.248 56.192C105.904 55.232 106.544 53.776 107.04 52.208V59.264H108.496V51.312C108.896 52.112 109.344 52.976 109.552 53.504L110.432 52.464ZM119.2 52.704V51.344H115.664V48.816H118.72V47.456H115.664V44.592H114.208V47.456H112.832C112.976 46.848 113.104 46.224 113.2 45.568L111.824 45.344C111.568 47.2 111.072 49.04 110.256 50.224C110.576 50.384 111.184 50.768 111.44 50.976C111.824 50.384 112.16 49.648 112.432 48.816H114.208V51.344H110.544V52.704H113.44C112.56 54.608 111.104 56.4 109.584 57.36C109.904 57.632 110.352 58.144 110.576 58.512C111.984 57.504 113.264 55.824 114.208 53.952V59.264H115.664V53.84C116.432 55.616 117.488 57.344 118.56 58.384C118.816 58 119.296 57.488 119.648 57.216C118.416 56.224 117.2 54.48 116.448 52.704H119.2ZM125.648 52.448H128.448V51.008H121.504V52.448H124.16V56.736C122.944 56.96 121.84 57.168 120.976 57.312L121.408 58.816C123.456 58.368 126.32 57.744 128.976 57.136L128.864 55.792C127.792 56.016 126.704 56.24 125.648 56.432V52.448ZM131.344 45.472C132.128 46.032 133.056 46.864 133.504 47.424L134.544 46.496C134.08 45.952 133.104 45.168 132.32 44.656L131.344 45.472ZM135.104 48.88V47.424H130.512C130.48 46.528 130.464 45.584 130.48 44.656H128.88C128.88 45.584 128.912 46.512 128.944 47.424H120.928V48.88H129.04C129.44 54.64 130.704 59.296 133.344 59.296C134.672 59.296 135.2 58.512 135.456 55.632C135.04 55.488 134.48 55.136 134.144 54.784C134.048 56.864 133.856 57.728 133.472 57.728C132.08 57.728 130.96 53.92 130.608 48.88H135.104ZM140.544 49.424C141.968 48.352 143.184 47.152 143.952 46.032C144.8 47.2 146.112 48.4 147.552 49.424H140.544ZM140.24 50.8H147.728V49.552C148.656 50.208 149.632 50.768 150.56 51.216C150.816 50.768 151.152 50.24 151.504 49.872C149.008 48.896 146.352 46.944 144.656 44.592H143.12C141.92 46.544 139.312 48.848 136.576 50.096C136.896 50.416 137.296 50.976 137.456 51.312C138.416 50.848 139.36 50.272 140.24 49.648V50.8ZM137.488 53.856H141.456C141.072 54.928 140.496 56.208 139.968 57.2L137.6 57.28L137.792 58.736C140.512 58.624 144.576 58.448 148.384 58.256C148.672 58.64 148.912 58.992 149.088 59.296L150.448 58.448C149.712 57.264 148.192 55.568 146.736 54.336L145.456 55.024C146.08 55.584 146.72 56.256 147.312 56.928C145.36 57.008 143.376 57.088 141.6 57.152C142.176 56.128 142.768 54.928 143.296 53.856H150.624V52.464H137.488V53.856ZM159.472 53.568C159.104 53.232 157.776 52.08 157.024 51.472C157.824 50.416 158.528 49.248 159.008 48.032L158.176 47.472L157.92 47.52H156.816V44.576H155.344V47.52H152.928V48.88H157.12C156.032 50.88 154.192 52.736 152.368 53.776C152.592 54.064 152.96 54.768 153.104 55.152C153.856 54.672 154.624 54.064 155.344 53.36V59.264H156.816V52.896C157.472 53.552 158.192 54.32 158.56 54.784L159.472 53.568ZM163.92 57.344V51.072H167.152V49.632H163.92V44.704H162.4V49.632H159.168V51.072H162.4V57.344H158.528V58.816H167.488V57.344H163.92ZM184.122 49.328H180.202V48.496H183.37V47.632H180.202V46.832H178.858V47.632H175.85V48.496H178.858V49.328H175.002V50.208H184.122V49.328ZM180.314 53.536H182.698C182.298 53.856 181.834 54.192 181.402 54.48C180.986 54.192 180.602 53.872 180.314 53.552V53.536ZM177.178 51.648H181.978V52.736H177.178V51.648ZM183.29 53.248V50.832H175.93V53.536H178.666C177.578 54.352 176.09 55.024 174.666 55.472C174.922 55.696 175.322 56.192 175.498 56.432C176.554 56.032 177.674 55.488 178.666 54.848V56.88H179.978V54.624C180.97 55.584 182.346 56.384 183.69 56.8C183.866 56.528 184.218 56.064 184.474 55.856C183.706 55.664 182.938 55.36 182.234 54.976C182.826 54.64 183.498 54.192 184.074 53.728L183.29 53.248ZM174.314 57.296V46.576H184.81V57.296H174.314ZM172.922 45.232V59.264H174.314V58.64H184.81V59.264H186.266V45.232H172.922ZM192.682 54.736H191.818V44.928H190.618V54.736H189.802V47.296H188.73V57.408H189.802V55.936H192.682V56.928H193.722V47.296H192.682V54.736ZM198.01 53.712V55.376H196.074V53.712H198.01ZM199.226 56.448V52.656H194.89V57.328H196.074V56.448H199.226ZM194.874 50.352C196.602 49.968 197.626 49.392 198.266 48.528C199.402 49.12 200.714 49.856 201.482 50.352H194.874ZM202.97 50.352H201.69L202.538 49.408C201.658 48.864 200.074 48.048 198.81 47.456C198.842 47.328 198.874 47.216 198.906 47.088H202.49V45.872H199.13C199.162 45.472 199.194 45.04 199.21 44.576H197.834C197.818 45.056 197.786 45.488 197.738 45.872H194.346V47.088H197.466C197.05 48.24 196.138 48.88 194.09 49.28C194.346 49.536 194.666 50.016 194.794 50.352H193.882V51.6H200.522V57.632C200.522 57.872 200.442 57.936 200.186 57.936C199.914 57.952 199.05 57.952 198.106 57.92C198.314 58.288 198.538 58.864 198.618 59.264C199.85 59.264 200.682 59.232 201.21 59.024C201.754 58.8 201.914 58.416 201.914 57.664V51.6H202.97V50.352ZM204.97 53.728C204.81 55.104 204.506 56.512 204.026 57.472C204.33 57.584 204.922 57.856 205.162 58.032C205.658 57.008 206.026 55.456 206.234 53.952L204.97 53.728ZM209.306 52.608C209.434 52.944 209.53 53.248 209.594 53.504L210.73 52.96C210.506 52.08 209.85 50.72 209.194 49.68L208.122 50.144C208.362 50.544 208.586 50.976 208.794 51.424L206.666 51.504C207.738 50.176 208.938 48.416 209.85 46.96L208.586 46.416C208.17 47.248 207.594 48.24 206.97 49.2C206.762 48.912 206.49 48.592 206.186 48.272C206.762 47.408 207.434 46.144 208.01 45.056L206.666 44.576C206.378 45.44 205.85 46.592 205.354 47.472C205.21 47.344 205.066 47.216 204.922 47.088L204.202 48.08C204.906 48.752 205.722 49.616 206.218 50.32C205.898 50.768 205.594 51.184 205.29 51.568L204.17 51.6L204.298 52.912C205.034 52.864 205.882 52.816 206.794 52.768V59.28H208.122V52.688L209.306 52.608ZM208.474 54.016C208.874 54.992 209.306 56.256 209.45 57.088L210.634 56.672C210.458 55.856 210.026 54.608 209.594 53.648L208.474 54.016ZM212.762 54.72H216.362V57.472H212.762V54.72ZM216.362 46.768V49.392H212.762V46.768H216.362ZM216.362 53.376H212.762V50.736H216.362V53.376ZM217.866 57.472V45.424H211.306V57.472H209.722V58.816H219.018V57.472H217.866Z" fill="white"/>
<path d="M71.25 18.3594H65.1406V16.4844C65.1406 15.6094 65.0625 15.0521 64.9062 14.8125C64.75 14.5729 64.4896 14.4531 64.125 14.4531C63.7292 14.4531 63.4271 14.6146 63.2188 14.9375C63.0208 15.2604 62.9219 15.75 62.9219 16.4062C62.9219 17.25 63.0365 17.8854 63.2656 18.3125C63.4844 18.7396 64.1042 19.2552 65.125 19.8594C68.0521 21.599 69.8958 23.026 70.6562 24.1406C71.4167 25.2552 71.7969 27.0521 71.7969 29.5312C71.7969 31.3333 71.5833 32.6615 71.1562 33.5156C70.7396 34.3698 69.9271 35.0885 68.7188 35.6719C67.5104 36.2448 66.1042 36.5312 64.5 36.5312C62.7396 36.5312 61.2344 36.1979 59.9844 35.5312C58.7448 34.8646 57.9323 34.0156 57.5469 32.9844C57.1615 31.9531 56.9688 30.4896 56.9688 28.5938V26.9375H63.0781V30.0156C63.0781 30.9635 63.1615 31.5729 63.3281 31.8438C63.5052 32.1146 63.8125 32.25 64.25 32.25C64.6875 32.25 65.0104 32.0781 65.2188 31.7344C65.4375 31.3906 65.5469 30.8802 65.5469 30.2031C65.5469 28.7135 65.3438 27.7396 64.9375 27.2812C64.5208 26.8229 63.4948 26.0573 61.8594 24.9844C60.224 23.901 59.1406 23.1146 58.6094 22.625C58.0781 22.1354 57.6354 21.4583 57.2812 20.5938C56.9375 19.7292 56.7656 18.625 56.7656 17.2812C56.7656 15.3438 57.0104 13.9271 57.5 13.0312C58 12.1354 58.8021 11.4375 59.9062 10.9375C61.0104 10.4271 62.3438 10.1719 63.9062 10.1719C65.6146 10.1719 67.0677 10.4479 68.2656 11C69.474 11.5521 70.2708 12.25 70.6562 13.0938C71.0521 13.9271 71.25 15.349 71.25 17.3594V18.3594ZM88.9062 25.5156C88.9062 28.0573 88.8438 29.8594 88.7188 30.9219C88.6042 31.974 88.2292 32.9375 87.5938 33.8125C86.9688 34.6875 86.1198 35.3594 85.0469 35.8281C83.974 36.2969 82.724 36.5312 81.2969 36.5312C79.9427 36.5312 78.724 36.3125 77.6406 35.875C76.5677 35.4271 75.7031 34.7604 75.0469 33.875C74.3906 32.9896 74 32.026 73.875 30.9844C73.75 29.9427 73.6875 28.1198 73.6875 25.5156V21.1875C73.6875 18.6458 73.7448 16.849 73.8594 15.7969C73.9844 14.7344 74.3594 13.7656 74.9844 12.8906C75.6198 12.0156 76.474 11.3438 77.5469 10.875C78.6198 10.4062 79.8698 10.1719 81.2969 10.1719C82.651 10.1719 83.8646 10.3958 84.9375 10.8438C86.0208 11.2812 86.8906 11.9427 87.5469 12.8281C88.2031 13.7135 88.5938 14.6771 88.7188 15.7188C88.8438 16.7604 88.9062 18.5833 88.9062 21.1875V25.5156ZM82.3281 17.2031C82.3281 16.026 82.2604 15.276 82.125 14.9531C82 14.6198 81.7344 14.4531 81.3281 14.4531C80.9844 14.4531 80.7188 14.5885 80.5312 14.8594C80.3542 15.1198 80.2656 15.901 80.2656 17.2031V29.0156C80.2656 30.4844 80.3229 31.3906 80.4375 31.7344C80.5625 32.0781 80.8438 32.25 81.2812 32.25C81.7292 32.25 82.0156 32.0521 82.1406 31.6562C82.2656 31.2604 82.3281 30.3177 82.3281 28.8281V17.2031ZM106.062 10.7031V36H100.297L96.875 24.5V36H91.375V10.7031H96.875L100.562 22.0938V10.7031H106.062ZM123.75 25.5156C123.75 28.0573 123.688 29.8594 123.562 30.9219C123.448 31.974 123.073 32.9375 122.438 33.8125C121.812 34.6875 120.964 35.3594 119.891 35.8281C118.818 36.2969 117.568 36.5312 116.141 36.5312C114.786 36.5312 113.568 36.3125 112.484 35.875C111.411 35.4271 110.547 34.7604 109.891 33.875C109.234 32.9896 108.844 32.026 108.719 30.9844C108.594 29.9427 108.531 28.1198 108.531 25.5156V21.1875C108.531 18.6458 108.589 16.849 108.703 15.7969C108.828 14.7344 109.203 13.7656 109.828 12.8906C110.464 12.0156 111.318 11.3438 112.391 10.875C113.464 10.4062 114.714 10.1719 116.141 10.1719C117.495 10.1719 118.708 10.3958 119.781 10.8438C120.865 11.2812 121.734 11.9427 122.391 12.8281C123.047 13.7135 123.438 14.6771 123.562 15.7188C123.688 16.7604 123.75 18.5833 123.75 21.1875V25.5156ZM117.172 17.2031C117.172 16.026 117.104 15.276 116.969 14.9531C116.844 14.6198 116.578 14.4531 116.172 14.4531C115.828 14.4531 115.562 14.5885 115.375 14.8594C115.198 15.1198 115.109 15.901 115.109 17.2031V29.0156C115.109 30.4844 115.167 31.3906 115.281 31.7344C115.406 32.0781 115.688 32.25 116.125 32.25C116.573 32.25 116.859 32.0521 116.984 31.6562C117.109 31.2604 117.172 30.3177 117.172 28.8281V17.2031ZM137.219 10.7031V15.7656L132.312 30.9375H137.219V36H125.094V32.3281L130.156 15.7656H125.688V10.7031H137.219ZM150.297 10.7031L154.062 36H147.328L147 31.4531H144.641L144.25 36H137.438L140.781 10.7031H150.297ZM146.812 26.9688C146.479 24.1042 146.146 20.5677 145.812 16.3594C145.146 21.1927 144.729 24.7292 144.562 26.9688H146.812ZM170.859 10.7031L167.094 22.125L171.219 36H164.422L161.766 25.1562V36H155.188V10.7031H161.766V20.5312L164.688 10.7031H170.859ZM178.953 10.7031V36H172.375V10.7031H178.953ZM202.609 21.7344H196.031V17.3281C196.031 16.0469 195.958 15.25 195.812 14.9375C195.677 14.6146 195.37 14.4531 194.891 14.4531C194.349 14.4531 194.005 14.6458 193.859 15.0312C193.714 15.4167 193.641 16.25 193.641 17.5312V29.2812C193.641 30.5104 193.714 31.3125 193.859 31.6875C194.005 32.0625 194.333 32.25 194.844 32.25C195.333 32.25 195.651 32.0625 195.797 31.6875C195.953 31.3125 196.031 30.4323 196.031 29.0469V25.875H202.609V26.8594C202.609 29.474 202.422 31.3281 202.047 32.4219C201.682 33.5156 200.865 34.474 199.594 35.2969C198.333 36.1198 196.776 36.5312 194.922 36.5312C192.995 36.5312 191.406 36.1823 190.156 35.4844C188.906 34.7865 188.078 33.8229 187.672 32.5938C187.266 31.3542 187.062 29.4948 187.062 27.0156V19.625C187.062 17.8021 187.125 16.4375 187.25 15.5312C187.375 14.6146 187.745 13.7344 188.359 12.8906C188.984 12.0469 189.844 11.3854 190.938 10.9062C192.042 10.4167 193.307 10.1719 194.734 10.1719C196.672 10.1719 198.271 10.5469 199.531 11.2969C200.792 12.0469 201.62 12.9844 202.016 14.1094C202.411 15.224 202.609 16.9635 202.609 19.3281V21.7344ZM220 25.5156C220 28.0573 219.938 29.8594 219.812 30.9219C219.698 31.974 219.323 32.9375 218.688 33.8125C218.062 34.6875 217.214 35.3594 216.141 35.8281C215.068 36.2969 213.818 36.5312 212.391 36.5312C211.036 36.5312 209.818 36.3125 208.734 35.875C207.661 35.4271 206.797 34.7604 206.141 33.875C205.484 32.9896 205.094 32.026 204.969 30.9844C204.844 29.9427 204.781 28.1198 204.781 25.5156V21.1875C204.781 18.6458 204.839 16.849 204.953 15.7969C205.078 14.7344 205.453 13.7656 206.078 12.8906C206.714 12.0156 207.568 11.3438 208.641 10.875C209.714 10.4062 210.964 10.1719 212.391 10.1719C213.745 10.1719 214.958 10.3958 216.031 10.8438C217.115 11.2812 217.984 11.9427 218.641 12.8281C219.297 13.7135 219.688 14.6771 219.812 15.7188C219.938 16.7604 220 18.5833 220 21.1875V25.5156ZM213.422 17.2031C213.422 16.026 213.354 15.276 213.219 14.9531C213.094 14.6198 212.828 14.4531 212.422 14.4531C212.078 14.4531 211.812 14.5885 211.625 14.8594C211.448 15.1198 211.359 15.901 211.359 17.2031V29.0156C211.359 30.4844 211.417 31.3906 211.531 31.7344C211.656 32.0781 211.938 32.25 212.375 32.25C212.823 32.25 213.109 32.0521 213.234 31.6562C213.359 31.2604 213.422 30.3177 213.422 28.8281V17.2031ZM226.484 30.8438V36H221.719V30.8438H226.484ZM234.953 10.7031V30.9375H238.953V36H228.375V10.7031H234.953ZM253.812 10.7031V15.7656H249.906V36H243.328V15.7656H239.438V10.7031H253.812ZM255.312 10.7031H260.234C263.411 10.7031 265.557 10.849 266.672 11.1406C267.797 11.4323 268.651 11.9115 269.234 12.5781C269.818 13.2448 270.182 13.9896 270.328 14.8125C270.474 15.625 270.547 17.2292 270.547 19.625V28.4844C270.547 30.7552 270.438 32.276 270.219 33.0469C270.01 33.8073 269.641 34.4062 269.109 34.8438C268.578 35.2708 267.922 35.5729 267.141 35.75C266.359 35.9167 265.182 36 263.609 36H255.312V10.7031ZM261.891 15.0312V31.6719C262.839 31.6719 263.422 31.4844 263.641 31.1094C263.859 30.724 263.969 29.6875 263.969 28V18.1719C263.969 17.026 263.932 16.2917 263.859 15.9688C263.786 15.6458 263.62 15.4115 263.359 15.2656C263.099 15.1094 262.609 15.0312 261.891 15.0312Z" fill="white"/>
<path d="M23.8203 6.91151L24.0003 7.02298L24.1803 6.91151C24.87 6.48523 25.5954 6.10648 26.3374 5.78549L26.9694 5.51192L26.3698 5.17293C25.654 4.76774 24.8922 4.43333 24.1063 4.17852L24.0003 4.14355L23.8944 4.17862C23.1084 4.43343 22.3466 4.76774 21.631 5.17302L21.0312 5.51202L21.6632 5.78558C22.4051 6.10658 23.1307 6.48533 23.8203 6.91151Z" fill="white"/>
<path d="M48 21.261C48 15.9867 45.179 11.0553 40.6333 8.36669C37.9451 3.82113 33.0133 1 27.7388 1C26.4766 1 25.2196 1.15975 24 1.47381C22.7804 1.15975 21.5234 1 20.2613 1C14.9867 1 10.0549 3.82113 7.36669 8.36669C2.82113 11.0553 0 15.9867 0 21.261C0 22.5234 0.160125 23.7804 0.473812 25C0.160125 26.2196 0 27.4766 0 28.739C0 34.0133 2.82113 38.9448 7.36669 41.6334C10.0549 46.1789 14.9867 49 20.2613 49C21.5234 49 22.7804 48.8403 24 48.5262C25.2196 48.8403 26.4766 49 27.7388 49C33.0133 49 37.9451 46.1789 40.6334 41.6333C45.179 38.9447 48 34.0133 48 28.739C48 27.4766 47.8399 26.2196 47.5262 25C47.8399 23.7804 48 22.5234 48 21.261ZM42.0804 32.3136L41.9391 32.4305L41.9571 32.6121C42.0034 33.0867 42.0271 33.5628 42.0271 34.0265C42.0271 36.5203 41.3714 38.9743 40.1318 41.1314C37.9747 42.3713 35.5199 43.0266 33.0262 43.0266C32.5629 43.0266 32.0872 43.0032 31.6126 42.9573L31.4302 42.9386L31.3141 43.0812C29.4095 45.4036 26.8815 47.0385 24 47.8178C21.1186 47.0385 18.5905 45.4036 16.6859 43.0812L16.5698 42.9386L16.3875 42.9573C15.9128 43.0032 15.4371 43.0266 14.9738 43.0266C12.4801 43.0266 10.0253 42.3713 7.86825 41.1314C6.62878 38.9743 5.973 36.5203 5.973 34.0265C5.973 33.5628 5.99681 33.0867 6.04312 32.6121L6.06103 32.4305L5.91966 32.3136C3.59719 30.4091 1.96144 27.8818 1.18294 25C1.96144 22.1182 3.59719 19.5909 5.91956 17.6864L6.06094 17.5695L6.04303 17.3879C5.99672 16.9133 5.97291 16.4372 5.97291 15.9735C5.97291 13.4797 6.62869 11.0257 7.86816 8.86862C10.0253 7.62869 12.48 6.97337 14.9738 6.97337C15.437 6.97337 15.9127 6.99681 16.3874 7.04275L16.5698 7.06141L16.6858 6.91881C18.5905 4.59644 21.1186 2.96144 24 2.18219C26.8815 2.96144 29.4095 4.59644 31.3141 6.91872L31.4302 7.06131L31.6126 7.04266C32.0872 6.99672 32.5629 6.97328 33.0262 6.97328C35.5199 6.97328 37.9747 7.62859 40.1318 8.86853C41.3714 11.0256 42.0271 13.4796 42.0271 15.9734C42.0271 16.4371 42.0034 16.9132 41.9571 17.3878L41.9391 17.5694L42.0804 17.6863C44.4028 19.5909 46.0386 22.1181 46.8171 24.9999C46.0386 27.8818 44.4028 30.4091 42.0804 32.3136Z" fill="white"/>
<path d="M36.6634 12.0817L36.712 12.2874L36.9181 12.3365C37.7044 12.5219 38.4825 12.7666 39.2326 13.0628L39.8731 13.3168L39.6884 12.6528C39.4678 11.8595 39.1673 11.0865 38.7949 10.3547L38.7442 10.2549L38.6449 10.2043C37.9134 9.83259 37.1404 9.53175 36.3471 9.31115L35.6831 9.12646L35.9364 9.76697C36.2335 10.5168 36.4778 11.296 36.6634 12.0817Z" fill="white"/>
<path d="M29.129 12.1067L29.2575 12.3038L29.4883 12.2546C30.1607 12.1105 30.8492 12.0061 31.5343 11.946L31.9887 11.9055L31.8238 11.4801C31.5288 10.7203 31.1559 9.98616 30.7156 9.29804L30.5871 9.09619L30.3537 9.14766C29.5553 9.32372 28.7714 9.58013 28.0232 9.91135L27.606 10.0944L27.899 10.4444C28.3415 10.972 28.7557 11.5315 29.129 12.1067Z" fill="white"/>
<path d="M41.9771 24.9998L42.0884 25.1806C42.5143 25.8695 42.893 26.595 43.2145 27.3369L43.488 27.9688L43.8274 27.3696C44.2322 26.6535 44.567 25.8921 44.8218 25.1057L44.8561 24.9998L44.8218 24.8939C44.567 24.1075 44.2322 23.3462 43.8274 22.63L43.488 22.0308L43.2145 22.6627C42.893 23.4047 42.5143 24.1302 42.0884 24.819L41.9771 24.9998Z" fill="white"/>
<path d="M37.5195 17.1767L37.0944 17.0115L37.0543 17.4658C36.9935 18.1508 36.8899 18.8389 36.7457 19.5114L36.6958 19.7429L36.8937 19.8708C37.4684 20.2448 38.0276 20.6586 38.5555 21.1005L38.905 21.3935L39.0893 20.9774C39.4198 20.2284 39.6765 19.4445 39.8522 18.6465L39.9036 18.4134L39.7023 18.284C39.0141 17.8445 38.2796 17.4712 37.5195 17.1767Z" fill="white"/>
<path d="M31.144 16.4714L31.2474 16.8532C31.2934 17.0239 31.3362 17.1953 31.3771 17.3676L31.4255 17.5748L31.6324 17.6232C31.8046 17.663 31.976 17.7066 32.1463 17.7526L32.5285 17.8563L32.5761 17.4627C32.6053 17.2195 32.6278 16.9694 32.6431 16.72L32.6661 16.3335L32.2803 16.3568C32.0305 16.3717 31.7808 16.3942 31.5368 16.4239L31.144 16.4714Z" fill="white"/>
<path d="M36.9184 37.6635L36.7123 37.7127L36.6637 37.9184C36.4781 38.7039 36.2338 39.4831 35.9369 40.2329L35.6836 40.8734L36.3476 40.6887C37.1409 40.4681 37.9139 40.1672 38.6453 39.7955L38.7447 39.7449L38.7953 39.6451C39.1678 38.9133 39.4683 38.1404 39.6889 37.3478L39.8736 36.6831L39.2331 36.9372C38.4829 37.2334 37.7047 37.4781 36.9184 37.6635Z" fill="white"/>
<path d="M39.0893 29.0226L38.905 28.6064L38.5555 28.8995C38.0276 29.3414 37.4684 29.7552 36.8937 30.1292L36.6958 30.2571L36.7457 30.4886C36.8899 31.1611 36.9935 31.8493 37.0543 32.5342L37.0944 32.9885L37.5195 32.8233C38.2796 32.5288 39.0142 32.1554 39.7024 31.7159L39.9037 31.5866L39.8523 31.3535C39.6765 30.5555 39.4198 29.7716 39.0893 29.0226Z" fill="white"/>
<path d="M36.2491 24.9999L35.9603 24.7435C35.776 24.5798 35.5839 24.4194 35.3907 24.2674L35.0794 24.0227L34.8817 24.3664C34.7937 24.5184 34.7037 24.6695 34.611 24.8198L34.4995 24.9998L34.611 25.1798C34.7037 25.3302 34.7937 25.4813 34.8817 25.6333L35.0794 25.977L35.3907 25.7323C35.584 25.5802 35.776 25.4198 35.9603 25.2561L36.2491 24.9999Z" fill="white"/>
<path d="M34.4892 20.653L34.2122 20.5206C32.8239 19.8543 31.3421 19.4093 29.8021 19.1974C29.5902 17.6583 29.1459 16.1753 28.4793 14.7881L28.3465 14.5107L28.0566 14.6128C26.6001 15.1256 25.2367 15.859 24 16.7949C22.7632 15.8589 21.3999 15.1256 19.9433 14.6128L19.6534 14.5107L19.5206 14.7881C18.8539 16.1761 18.4096 17.6583 18.1978 19.1974C16.6578 19.4094 15.1761 19.8544 13.7878 20.5206L13.5107 20.653L13.6128 20.9429C14.1253 22.3994 14.859 23.7632 15.7953 24.9999C14.859 26.2367 14.1253 27.6005 13.6128 29.057L13.5107 29.3468L13.7878 29.4793C15.1757 30.1456 16.6579 30.5906 18.1978 30.8025C18.4097 32.3416 18.854 33.8239 19.5206 35.2117L19.6534 35.4891L19.9433 35.387C21.3998 34.8742 22.7632 34.1409 24 33.205C25.2367 34.141 26.6001 34.8743 28.0566 35.387L28.3465 35.4891L28.4793 35.2117C29.146 33.8246 29.5903 32.3416 29.8021 30.8025C31.3421 30.5905 32.8243 30.1455 34.2122 29.4793L34.4892 29.3468L34.3871 29.057C33.8746 27.6005 33.1411 26.2367 32.2048 24.9999C33.1411 23.7632 33.8747 22.3994 34.3871 20.9429L34.4892 20.653ZM27.368 28.368C26.3051 28.979 25.1727 29.4489 23.9999 29.7661C22.8271 29.4488 21.6947 28.979 20.6318 28.368C20.0208 27.3051 19.5505 26.1727 19.2334 24.9999C19.5505 23.8271 20.0209 22.6947 20.6318 21.6319C21.6947 21.0209 22.8271 20.5509 23.9999 20.2338C25.1727 20.551 26.3051 21.0209 27.368 21.6319C27.979 22.6948 28.4493 23.8271 28.7665 24.9999C28.4492 26.1727 27.979 27.3052 27.368 28.368Z" fill="white"/>
<path d="M24.1803 43.0883L24.0003 42.9768L23.8203 43.0883C23.1307 43.5146 22.4051 43.8933 21.6632 44.2143L21.0312 44.4879L21.631 44.8269C22.3466 45.2321 23.1085 45.5665 23.8944 45.8213L24.0003 45.8563L24.1062 45.8213C24.8922 45.5665 25.6539 45.2322 26.3697 44.8269L26.9693 44.4879L26.3373 44.2143C25.5955 43.8932 24.87 43.5145 24.1803 43.0883Z" fill="white"/>
<path d="M29.4884 37.7454L29.2576 37.6963L29.1291 37.8934C28.7558 38.4685 28.3416 39.028 27.899 39.5555L27.606 39.9047L28.0232 40.0886C28.7714 40.4198 29.5553 40.6762 30.3537 40.8523L30.5871 40.9038L30.7156 40.7019C31.156 40.0138 31.5288 39.2796 31.8238 38.5199L31.9887 38.0944L31.5343 38.0539C30.8493 37.9939 30.1608 37.8895 29.4884 37.7454Z" fill="white"/>
<path d="M32.5761 32.5374L32.5285 32.1438L32.1463 32.2475C31.9761 32.2934 31.8042 32.3371 31.6324 32.3769L31.4255 32.426L31.3771 32.6325C31.3362 32.8047 31.2934 32.9762 31.2474 33.1468L31.144 33.5287L31.5369 33.5762C31.7808 33.6058 32.0305 33.6276 32.2804 33.6432L32.6662 33.6666L32.6432 33.28C32.6279 33.0307 32.6053 32.7805 32.5761 32.5374Z" fill="white"/>
<path d="M11.3365 37.9183L11.2877 37.7126L11.0816 37.6634C10.2953 37.478 9.51716 37.2333 8.76706 36.9372L8.12646 36.6831L8.31115 37.3478C8.53165 38.1404 8.83212 38.9134 9.2046 39.6451L9.25531 39.7449L9.35469 39.7955C10.086 40.1672 10.8591 40.4681 11.6525 40.6887L12.3165 40.8734L12.0631 40.2329C11.7662 39.4831 11.5219 38.7039 11.3365 37.9183Z" fill="white"/>
<path d="M18.8709 37.8934L18.7423 37.6963L18.5116 37.7454C17.8391 37.8895 17.1506 37.9939 16.4655 38.054L16.0112 38.0945L16.176 38.52C16.471 39.2797 16.8439 40.0139 17.2842 40.702L17.4128 40.9039L17.6462 40.8524C18.4446 40.6763 19.2285 40.4199 19.9767 40.0887L20.394 39.9048L20.101 39.5556C19.6583 39.028 19.2441 38.4685 18.8709 37.8934Z" fill="white"/>
<path d="M23.9997 37.249L24.2561 36.9599C24.4198 36.7759 24.5799 36.5842 24.7322 36.3901L24.9769 36.0793L24.634 35.8821C24.4808 35.7941 24.3297 35.7037 24.1797 35.611L23.9997 35.4995L23.8197 35.611C23.6697 35.7037 23.5186 35.7942 23.3654 35.8821L23.0225 36.0793L23.2671 36.3901C23.4196 36.5842 23.5796 36.7759 23.7433 36.9599L23.9997 37.249Z" fill="white"/>
<path d="M11.0816 12.3365L11.2877 12.2874L11.3365 12.0817C11.5219 11.2962 11.7662 10.5169 12.0631 9.76721L12.3164 9.12671L11.6525 9.3114C10.8591 9.53199 10.0861 9.83284 9.35468 10.2046L9.25531 10.2552L9.20459 10.3549C8.83212 11.0868 8.53165 11.8597 8.31115 12.653L8.12646 13.3171L8.76706 13.063C9.51715 12.7667 10.2953 12.522 11.0816 12.3365Z" fill="white"/>
<path d="M18.5116 12.2545L18.7423 12.3037L18.8709 12.1066C19.2441 11.5314 19.6584 10.9719 20.101 10.4444L20.394 10.0944L19.9767 9.91135C19.2285 9.58013 18.4446 9.32372 17.6462 9.14766L17.4128 9.09619L17.2842 9.29804C16.8438 9.98616 16.471 10.7203 16.176 11.4801L16.0112 11.9055L16.4655 11.946C17.1506 12.006 17.8391 12.1104 18.5116 12.2545Z" fill="white"/>
<path d="M23.9997 12.751L23.7433 13.0401C23.5796 13.224 23.4196 13.4157 23.2671 13.6098L23.0225 13.9207L23.3654 14.1178C23.5185 14.2059 23.6697 14.2962 23.8197 14.389L23.9997 14.5004L24.1797 14.389C24.3297 14.2962 24.4808 14.2058 24.634 14.1178L24.9769 13.9207L24.7322 13.6098C24.5799 13.4157 24.4198 13.224 24.2561 13.0401L23.9997 12.751Z" fill="white"/>
<path d="M4.78561 22.6627L4.51205 22.0308L4.17267 22.63C3.76786 23.3461 3.43317 24.1075 3.17826 24.8939L3.14404 24.9998L3.17826 25.1057C3.43317 25.8921 3.76786 26.6534 4.17267 27.3696L4.51205 27.9688L4.78561 27.3369C5.10708 26.5949 5.48574 25.8694 5.91174 25.1806L6.02321 24.9998L5.91174 24.819C5.48583 24.1302 5.10708 23.4046 4.78561 22.6627Z" fill="white"/>
<path d="M8.91011 20.9774L9.09442 21.3935L9.44392 21.1005C9.97192 20.6586 10.531 20.2448 11.1057 19.8708L11.3036 19.7429L11.2538 19.5114C11.1097 18.8388 11.006 18.1507 10.9451 17.4658L10.905 17.0115L10.48 17.1767C9.71973 17.4712 8.9853 17.8445 8.29717 18.284L8.0957 18.4134L8.14717 18.6465C8.32295 19.4445 8.57973 20.2284 8.91011 20.9774Z" fill="white"/>
<path d="M15.4235 17.4627L15.471 17.8563L15.8532 17.7526C16.0235 17.7067 16.195 17.663 16.3673 17.6232L16.5741 17.5748L16.6225 17.3676C16.6634 17.1953 16.7063 17.0239 16.7522 16.8532L16.8555 16.4714L16.4627 16.4239C16.2188 16.3942 15.969 16.3717 15.7192 16.3568L15.3335 16.3335L15.3566 16.72C15.3717 16.9694 15.3942 17.2195 15.4235 17.4627Z" fill="white"/>
<path d="M10.4804 32.8233L10.9055 32.9885L10.9456 32.5342C11.0064 31.8492 11.1101 31.161 11.2543 30.4886L11.3041 30.2571L11.1062 30.1292C10.5315 29.7552 9.97241 29.3414 9.44441 28.8995L9.09491 28.6064L8.9106 29.0226C8.58022 29.7716 8.32344 30.5555 8.14766 31.3535L8.09619 31.5866L8.29766 31.7159C8.98579 32.1554 9.72022 32.5288 10.4804 32.8233Z" fill="white"/>
<path d="M13.1183 24.3664L12.9207 24.0227L12.6095 24.2674C12.4161 24.4194 12.2241 24.5798 12.0397 24.7435L11.751 24.9999L12.0397 25.2563C12.224 25.42 12.4161 25.5805 12.6095 25.7325L12.9207 25.9772L13.1183 25.6335C13.2064 25.4815 13.2964 25.3304 13.3891 25.18L13.5006 25L13.3891 24.82C13.2964 24.6695 13.2064 24.5184 13.1183 24.3664Z" fill="white"/>
<path d="M16.8555 33.5287L16.7522 33.1468C16.7063 32.9762 16.6634 32.8047 16.6225 32.6325L16.5741 32.426L16.3673 32.3769C16.1953 32.3371 16.0236 32.2935 15.8532 32.2475L15.471 32.1438L15.4235 32.5374C15.3942 32.7805 15.3717 33.0307 15.3566 33.28L15.3335 33.6666L15.7192 33.6432C15.9689 33.6276 16.2188 33.6058 16.4627 33.5762L16.8555 33.5287Z" fill="white"/>
<path d="M26.0311 23.1188L25.9804 23.0198L25.8814 22.9692C25.3094 22.677 24.7126 22.4291 24.1066 22.2312L24.0003 22.196L23.8939 22.2312C23.288 22.4291 22.6911 22.677 22.1191 22.9692L22.0201 23.0198L21.9695 23.1188C21.6776 23.6908 21.4294 24.2877 21.2315 24.8932L21.1968 25L21.2315 25.106C21.4294 25.7123 21.6776 26.3091 21.9695 26.8812L22.0201 26.9802L22.1191 27.0308C22.691 27.323 23.2879 27.5709 23.8939 27.7688L24.0003 27.804L24.1067 27.7688C24.7126 27.5709 25.3095 27.323 25.8815 27.0308L25.9805 26.9802L26.0311 26.8812C26.3231 26.3092 26.5712 25.7123 26.7691 25.106L26.8038 25L26.7691 24.8932C26.5711 24.2877 26.323 23.6908 26.0311 23.1188Z" fill="white"/>
</svg>
